<svg xmlns="http://www.w3.org/2000/svg" viewBox="0 0 1336.64 305.05"><defs><style>.cls-1{fill:#d7007e;}.cls-2{fill:#ee748a;}.cls-3{fill:#c273ad;}.cls-4{fill:#8a2753;}.cls-5{fill:#a3195b;}.cls-6{fill:#aa4895;}.cls-7{fill:#8a1e82;}.cls-8{fill:#ea4c78;}.cls-9{fill:#be097f;}.cls-10{fill:#991a81;}.cls-11{fill:#e71d73;}.cls-12{fill:#1d1d1b;}.cls-13{fill:#5168af;}.cls-14{fill:#29235c;}.cls-15{fill:#83d0f5;}.cls-16{fill:#00adb8;}.cls-17{fill:#52c3f1;}.cls-18{fill:#00afc8;}.cls-19{fill:#5c2483;}.cls-20{fill:#004e9e;}.cls-21{fill:#6bb6a9;}.cls-22{fill:#36a9e1;}.cls-23{fill:#2768b1;}.cls-24{fill:#2fac66;}.cls-25{fill:#dedc00;}.cls-26{fill:#90c362;}.cls-27{fill:#53b89a;}.cls-28{fill:#afd4a1;}.cls-29{fill:#8f9a00;}.cls-30{fill:#b3cf60;}.cls-31{fill:#009579;}.cls-32{fill:#8dbe23;}.cls-33{fill:#063;}.cls-34{fill:#3aaa35;}.cls-35{fill:#951b81;}</style></defs><title>Asset 2</title><g id="Layer_2" data-name="Layer 2"><g id="objects"><path class="cls-1" d="M778.08,171.31c-.21-3.78.6-7.87.92-11.65.37-4.27.69-8.53,1.26-12.78A183.81,183.81,0,0,1,785,123.41c2-7.42,4.37-14.77,6.78-22.06,2.56-7.75,5.64-15.35,8.14-23.12,1.43-4.45-6.22-6.31-7-1.76-.27,1.64-.16,3.25-.31,4.89-.19,2,2.73,2.95,4,1.54.87-1,1.62-2,2.41-3.08L793.3,75.6a239.25,239.25,0,0,0-13.08,46.6,226.2,226.2,0,0,0-3,23.4c-.29,4.06-.4,8.13-.4,12.2,0,4.57,1.07,9,1.2,13.51a0,0,0,1,0,0,0Z"/><path class="cls-2" d="M777.37,187c0,3.78.94,7.84,1.43,11.6.55,4.25,1.07,8.49,1.82,12.71a183.7,183.7,0,0,0,5.75,23.24c2.33,7.33,5,14.56,7.75,21.75,2.9,7.63,6.31,15.09,9.14,22.74,1.62,4.38-5.94,6.58-6.88,2.06-.34-1.63-.3-3.24-.52-4.87-.28-2,2.59-3.06,3.9-1.72.91.94,1.71,2,2.55,3l-5.54,4.48a239.4,239.4,0,0,1-15.12-46,226.82,226.82,0,0,1-4-23.25c-.46-4-.76-8.1-.94-12.17-.21-4.56.67-9,.61-13.55,0,0,.05,0,.05,0Z"/><path class="cls-2" d="M782.95,174.72c10.21-8.45,21.72-17.34,35.81-22.33a137,137,0,0,1,21.39-5.72q5.58-1,11.27-1.54c4.33-.41,8.78-.26,13.08-.74l-1-4.76a17.71,17.71,0,0,0-4.92,1.43c-2.34,1.28-.84,3.74,2,3.3a9.39,9.39,0,0,1,3,0c4.68.77,5.71-4.48.79-4.8-4.24-.27-8.88.39-13.07.89s-8.18,1.11-12.17,2a93.67,93.67,0,0,0-21.79,7.39c-13.67,6.81-25.16,14.92-34.52,24.88,0,0,.06.1.11.06Z"/><path class="cls-3" d="M816.37,181.63c12.29,5,25.58,10.87,36.66,20.9a136.79,136.79,0,0,1,15.19,16.1q3.54,4.43,6.71,9.19c2.41,3.62,4.4,7.61,6.87,11.15l3.71-3.14a17.64,17.64,0,0,0-3.59-3.65c-2.24-1.45-3.69,1-1.95,3.35a9.45,9.45,0,0,1,1.46,2.63c1.55,4.49,6.66,2.9,4.59-1.59-1.77-3.86-4.56-7.63-7-11.08s-4.86-6.67-7.52-9.77a93.73,93.73,0,0,0-16.86-15.66c-12.5-8.8-25.08-15.05-38.3-18.55-.06,0-.06.1,0,.13Z"/><path class="cls-4" d="M770.71,196.93c-3.41,12.81-6.68,27-5.33,41.86a136.91,136.91,0,0,0,3.73,21.82q1.42,5.49,3.31,10.89c1.44,4.1,3.43,8.09,4.78,12.19l-4.74,1.08a17.62,17.62,0,0,1-.76-5.07c.18-2.66,3-2.32,3.85.46a9.39,9.39,0,0,0,1.22,2.75c2.65,3.94-1.69,7.06-4,2.72-2-3.74-3.35-8.23-4.65-12.25s-2.41-7.89-3.29-11.88a93.66,93.66,0,0,1-2.38-22.89c.48-15.27,3-29.09,8.19-41.75,0-.06.12,0,.1.08Z"/><path class="cls-4" d="M803.67,151.71c5.83-4.2,11.42-8.62,17.6-12.52a115.65,115.65,0,0,1,20.06-9.83,118.47,118.47,0,0,1,21.78-6.17,141.34,141.34,0,0,1,24.47-1.79c4.82,0,3.57-6.4-1.45-6-1.36.11-2.74.1-4.09.26-2.88.34-3.2,3.53-.45,4.44,1.29.43,2.64.69,3.95,1.08l1.62-5.78c-16.62-.69-33.54,3.31-47.52,9.59a121.84,121.84,0,0,0-19.92,11.64c-6.23,4.37-12,9.16-16.43,14.77-.15.19.16.46.39.29Z"/><path class="cls-2" d="M781.92,181.48c7.83,2.75,15.74,5.14,23.48,8.4a136.62,136.62,0,0,1,41.85,28.83c6.42,6.61,11.66,14,16.81,21.72,3,4.49,8.68-.78,5.18-5.21-.95-1.2-1.78-2.49-2.77-3.65-2.1-2.48-5.54-.73-4.78,2.43.36,1.48.92,2.91,1.33,4.39l6.85-2.2C860.39,220.2,846,207,831,197.92a137.11,137.11,0,0,0-24-11.14c-8.25-3-16.65-5.34-25-5.86-.28,0-.36.44-.06.55Z"/><path class="cls-5" d="M783.54,178.19c7.29-1.1,14.42-2.5,21.93-3.19a128.1,128.1,0,0,1,23.33.28,137.59,137.59,0,0,1,23.64,4.27,170,170,0,0,1,24.64,9.31c4.73,2.12,5.89-4.05.82-5.92-1.38-.51-2.72-1.13-4.1-1.59-2.94-1-4.46,1.68-2.11,3.71,1.11,1,2.33,1.79,3.47,2.71l3.75-4.37a126.85,126.85,0,0,0-50.15-12.71,131.78,131.78,0,0,0-23.88,1.38c-7.75,1.08-15.2,2.72-21.63,5.7-.21.1,0,.47.27.43Z"/><path class="cls-6" d="M779.83,184.07c4.75,5.64,9.68,11,14.19,17a128.06,128.06,0,0,1,12,20,137.54,137.54,0,0,1,8.73,22.38,169.74,169.74,0,0,1,5,25.87c.67,5.14,6.54,2.91,5.48-2.39-.29-1.44-.46-2.91-.79-4.33-.7-3-3.77-2.92-4.26.14-.23,1.44-.31,2.92-.5,4.37l5.69.91a126.81,126.81,0,0,0-15.4-49.39,131.77,131.77,0,0,0-13.67-19.63c-5-6-10.27-11.54-16.17-15.46-.19-.13-.41.24-.22.46Z"/><path class="cls-2" d="M808.8,93.24a34.31,34.31,0,0,1,3.05-3.55c1.13-1.29,2.24-2.59,3.43-3.83a73.44,73.44,0,0,1,7.08-6.48c2.4-1.93,4.9-3.74,7.41-5.53,2.66-1.9,5.45-3.63,8.09-5.56,1.52-1.1-.52-3.51-1.84-2.21-.47.47-.82,1-1.26,1.51s.19,1.6.92,1.44c.51-.11,1-.28,1.5-.42l-.85-2.72a95.86,95.86,0,0,0-15.24,12,90.47,90.47,0,0,0-6.49,6.86c-1.05,1.25-2,2.53-3,3.85-1.08,1.48-1.78,3.16-2.8,4.65,0,0,0,0,0,0Z"/><path class="cls-5" d="M789,139.37a160.27,160.27,0,0,1,21.81-32.57,91.31,91.31,0,0,1,13.88-13,77.91,77.91,0,0,1,7.74-5.06c3-1.76,6.24-3,9.27-4.65,4.06-2.22.33-7.83-3.68-6-3,1.38-6,3.66-8.74,5.53s-5.31,4-7.87,6.13a101.43,101.43,0,0,0-13.76,14.05c-8.64,10.63-14.21,22.72-19.11,35.4-.1.26.33.42.45.18Z"/><path class="cls-1" d="M796.78,191.36a160.31,160.31,0,0,1,26.4,29,91.42,91.42,0,0,1,9.3,16.6,77.82,77.82,0,0,1,3.05,8.73c1,3.35,1.42,6.78,2.3,10.12,1.18,4.48,7.53,2.2,6.7-2.14-.62-3.25-2.12-6.68-3.27-9.81s-2.62-6.12-4.07-9.11A101.46,101.46,0,0,0,826.84,218c-8.25-10.94-18.65-19.24-29.79-27-.23-.16-.48.22-.28.39Z"/><path class="cls-4" d="M820.81,178.4a160.2,160.2,0,0,1,36.61,14A91.15,91.15,0,0,1,873.18,203a77.32,77.32,0,0,1,6.66,6.42c2.38,2.55,4.31,5.42,6.6,8,3.07,3.47,7.71-1.42,5-4.93-2-2.63-4.9-5-7.33-7.29S879,201,876.4,199a101.32,101.32,0,0,0-16.76-10.28c-12.28-6.06-25.31-8.8-38.76-10.76-.27,0-.33.41-.07.48Z"/><path class="cls-7" d="M782.16,171.33a207.36,207.36,0,0,1,28.21-42.14,117.92,117.92,0,0,1,18-16.83,100.31,100.31,0,0,1,10-6.54c3.91-2.27,8.07-3.88,12-6,5.26-2.87.43-10.14-4.77-7.76-3.9,1.79-7.74,4.73-11.3,7.15s-6.88,5.19-10.18,7.93a131,131,0,0,0-17.8,18.18c-11.18,13.75-18.38,29.39-24.73,45.79-.13.33.42.54.58.23Z"/><path class="cls-8" d="M791,214.69a176,176,0,0,1,15.7,40,100.07,100.07,0,0,1,3,20.66,85.19,85.19,0,0,1-.29,10.15c-.31,3.82-1.2,7.5-1.61,11.27-.55,5.05,6.85,5.2,7.71.43.64-3.58.45-7.68.49-11.33s-.29-7.3-.6-10.93a111.32,111.32,0,0,0-4.05-21.2c-4.17-14.44-11.58-27-19.93-39.39-.17-.25-.58,0-.44.29Z"/><path class="cls-2" d="M889.84,202c8,4.27,12.68,12,17.07,19.59a2.11,2.11,0,0,0,1.84,1,2,2,0,0,0,1.8-1.08,2.11,2.11,0,0,0,0-2.13,44.79,44.79,0,0,0-20.35-17.94c-.37-.16-.68.36-.31.56Z"/><path class="cls-1" d="M836.69,118.87c7-5.69,16-7,24.67-8.16A2.1,2.1,0,0,0,863,109.4a2,2,0,0,0-.3-2.07,2.11,2.11,0,0,0-2-.78,44.79,44.79,0,0,0-24.42,11.82c-.29.28.07.76.39.5Z"/><path class="cls-3" d="M806.83,88.45c.92-2.89,3-5.77,4.57-8.36a31.86,31.86,0,0,1,6.95-7.93c2.22-1.84-.14-5.69-2.47-3.84a27.7,27.7,0,0,0-6.81,8.6c-2,3.72-2.53,7.22-3.16,11.32a.47.47,0,0,0,.92.21Z"/><path class="cls-9" d="M819.38,205.35c2.44,1.8,4.5,4.69,6.45,7a32,32,0,0,1,5.27,9.13c1,2.69,5.43,1.7,4.43-1.1a27.7,27.7,0,0,0-6-9.21c-2.87-3.14-6-4.72-9.7-6.64a.47.47,0,0,0-.5.8Z"/><path class="cls-10" d="M861.24,132.21a11.7,11.7,0,0,1,9.57.44,10.87,10.87,0,0,1,3.08,2.27c.87.88,1.42,2.31,2.57,2.82a1.91,1.91,0,0,0,2.83-1.6c.26-3.46-5.33-5.33-7.9-6A13,13,0,0,0,861,131.71a.29.29,0,0,0,.29.5Z"/><path class="cls-1" d="M819.54,165.68a117.66,117.66,0,0,1,42.1-1.2c13.55,2.18,27.48,7.49,37.25,17.43,3.56,3.62,8.45-2,4.57-5.3-11.19-9.6-25.66-14.21-40.07-16.12a104,104,0,0,0-44.25,3.32,1,1,0,0,0,.41,1.85Z"/><path class="cls-2" d="M772,175c-10.57-8-22.46-16.36-36.76-20.73a137,137,0,0,0-21.62-4.77q-5.62-.76-11.33-1c-4.34-.21-8.79.13-13.1-.17l.79-4.8a17.77,17.77,0,0,1,5,1.21c2.4,1.17,1,3.7-1.87,3.39a9.36,9.36,0,0,0-3,.09c-4.65,1-5.9-4.23-1-4.76,4.22-.46,8.89,0,13.1.31s8.22.75,12.25,1.44a93.65,93.65,0,0,1,22.09,6.43c14,6.21,25.79,13.8,35.58,23.34,0,0-.05.1-.11.06Z"/><path class="cls-1" d="M738.92,183.34c-12.06,5.5-25.07,12-35.71,22.49a137,137,0,0,0-14.47,16.75q-3.34,4.59-6.3,9.47c-2.25,3.72-4.06,7.79-6.37,11.44l-3.85-3a17.69,17.69,0,0,1,3.43-3.81c2.17-1.55,3.73.88,2.09,3.26a9.4,9.4,0,0,0-1.35,2.69c-1.35,4.55-6.52,3.19-4.66-1.38,1.6-3.93,4.22-7.82,6.5-11.38s4.57-6.88,7.09-10.09a93.65,93.65,0,0,1,16.15-16.39c12.1-9.34,24.4-16.14,37.44-20.21.06,0,.07.1,0,.13Z"/><path class="cls-7" d="M750.29,152.88c-6-3.94-11.79-8.11-18.13-11.74a115.6,115.6,0,0,0-20.47-8.93,118.49,118.49,0,0,0-22-5.2,141.37,141.37,0,0,0-24.52-.72c-4.82.18-3.85-6.24,1.19-6,1.37.05,2.74,0,4.09.08,2.89.21,3.36,3.39.65,4.42-1.27.48-2.61.81-3.9,1.25l-1.87-5.71c16.58-1.42,33.65,1.83,47.9,7.5a121.77,121.77,0,0,1,20.41,10.75c6.42,4.09,12.41,8.63,17.06,14,.16.18-.14.46-.37.31Z"/><path class="cls-5" d="M773.33,181.67c-7.7,3.1-15.5,5.82-23.08,9.43a136.58,136.58,0,0,0-40.54,30.64c-6.12,6.89-11,14.47-15.84,22.44-2.78,4.61-8.7-.4-5.4-5,.9-1.24,1.67-2.57,2.6-3.77,2-2.57,5.51-1,4.88,2.22-.29,1.5-.79,3-1.13,4.44l-6.94-1.9c8.78-16.39,22.6-30.26,37.13-39.94a137,137,0,0,1,23.49-12.18c8.11-3.38,16.4-6.07,24.76-7,.28,0,.38.43.08.55Z"/><path class="cls-3" d="M774.11,161.52c-1.52-8.16-2.66-16.34-4.7-24.49a128,128,0,0,0-8.88-23.9,127.07,127.07,0,0,0-13.2-21.88c-5.55-7.35-12-13.67-18.89-19.94-4-3.63,2.1-8.46,5.94-4.32,1,1.12,2.19,2.14,3.19,3.29,2.12,2.46-.13,5.59-3.14,4.35-1.41-.58-2.74-1.35-4.13-2l3.23-6.44c14.35,11.83,25.23,28.11,31.86,44.26a137,137,0,0,1,7.33,25.43c1.72,8.62,2.73,17.27,1.95,25.64,0,.28-.49.29-.55,0Z"/><path class="cls-5" d="M771.57,178.45c-7.33-.78-14.52-1.87-22.05-2.22a128.17,128.17,0,0,0-23.3,1.3,137.54,137.54,0,0,0-23.43,5.3,169.9,169.9,0,0,0-24.21,10.39c-4.63,2.33-6.07-3.79-1.08-5.88,1.35-.57,2.67-1.25,4-1.77,2.9-1.11,4.53,1.48,2.27,3.61-1.06,1-2.25,1.89-3.34,2.86l-3.94-4.2A126.83,126.83,0,0,1,726,172.94a131.63,131.63,0,0,1,23.91.33c7.79.73,15.31,2,21.86,4.74.22.09,0,.47-.25.44Z"/><path class="cls-7" d="M775.54,184.16c-4.5,5.84-9.18,11.39-13.43,17.63A128.09,128.09,0,0,0,751,222.33a137.63,137.63,0,0,0-7.74,22.75,170,170,0,0,0-3.81,26.07c-.44,5.17-6.4,3.19-5.58-2.15.23-1.45.33-2.92.6-4.36.57-3.05,3.64-3.08,4.27,0,.29,1.43.43,2.9.69,4.34l-5.64,1.16a126.82,126.82,0,0,1,13.21-50,131.49,131.49,0,0,1,12.79-20.21c4.7-6.25,9.75-12,15.47-16.15.19-.14.42.22.24.45Z"/><path class="cls-4" d="M764.43,139.91a160.33,160.33,0,0,0-23.22-31.58,91.23,91.23,0,0,0-14.44-12.38,77.62,77.62,0,0,0-8-4.71c-3.09-1.62-6.37-2.72-9.47-4.24-4.16-2-.68-7.81,3.42-6.15,3.07,1.25,6.14,3.39,9,5.14s5.48,3.77,8.13,5.78a101.45,101.45,0,0,1,14.36,13.43c9.1,10.24,15.19,22.07,20.65,34.52.11.25-.31.43-.44.2Z"/><path class="cls-1" d="M752.5,171.54a160.3,160.3,0,0,0-39-4.37,91.19,91.19,0,0,0-18.9,2.21,77.89,77.89,0,0,0-8.86,2.65c-3.29,1.17-6.32,2.83-9.54,4.08-4.32,1.67-6.2-4.8-2.2-6.68,3-1.41,6.65-2.21,9.86-3.1s6.49-1.47,9.76-2.05a101.44,101.44,0,0,1,19.61-1.44c13.69.26,26.52,3.81,39.37,8.25.26.09.11.52-.15.46Z"/><path class="cls-6" d="M765.85,188.31a160.32,160.32,0,0,0-25.09,30.11,91.18,91.18,0,0,0-8.56,17,77.66,77.66,0,0,0-2.67,8.86c-.83,3.39-1.12,6.83-1.85,10.21-1,4.53-7.42,2.53-6.79-1.84.47-3.28,1.82-6.77,2.84-9.94s2.35-6.23,3.66-9.28a101.43,101.43,0,0,1,9.6-17.16c7.76-11.29,17.79-20,28.57-28.32.22-.17.49.19.29.38Z"/><path class="cls-1" d="M734.35,180.3a160.32,160.32,0,0,0-36,15.61,91.2,91.2,0,0,0-15.29,11.33,77.52,77.52,0,0,0-6.37,6.71c-2.27,2.65-4.07,5.6-6.24,8.29-2.91,3.6-7.77-1.08-5.24-4.7,1.9-2.71,4.67-5.23,7-7.6s4.9-4.51,7.44-6.64a101.41,101.41,0,0,1,16.29-11c12-6.59,24.9-9.9,38.25-12.45.27-.05.35.4.09.47Z"/><path class="cls-3" d="M772.64,171.53a207.36,207.36,0,0,0-30-40.86,118,118,0,0,0-18.69-16,100.26,100.26,0,0,0-10.3-6.1c-4-2.1-8.24-3.52-12.25-5.49-5.38-2.64-.87-10.11,4.42-8,4,1.61,7.94,4.39,11.61,6.65s7.1,4.88,10.51,7.48a131.15,131.15,0,0,1,18.58,17.38c11.77,13.24,19.66,28.55,26.72,44.66.14.33-.4.56-.57.25Z"/><path class="cls-2" d="M755,251.1c-1.59,8.9,1.58,17.42,4.78,25.54a2.11,2.11,0,0,1-.36,2.07,2,2,0,0,1-2,.74,2.1,2.1,0,0,1-1.64-1.35A44.78,44.78,0,0,1,754.33,251c.1-.39.7-.31.63.1Z"/><path class="cls-1" d="M715.86,121.53c-7.27-5.38-16.31-6.32-25-7.07a2.1,2.1,0,0,1-1.69-1.24,2,2,0,0,1,.21-2.09,2.1,2.1,0,0,1,1.94-.87A44.78,44.78,0,0,1,716.23,121c.3.27,0,.77-.37.52Z"/><path class="cls-3" d="M737,207.16c-2.36,1.91-4.29,4.88-6.13,7.3a31.85,31.85,0,0,0-4.86,9.35c-.91,2.73-5.35,1.93-4.48-.91a27.69,27.69,0,0,1,5.54-9.46c2.73-3.26,5.81-5,9.4-7.06a.47.47,0,0,1,.53.78Z"/><circle class="cls-11" cx="796.14" cy="61.03" r="3.18" transform="translate(-1.15 17.58) rotate(-1.26)"/><circle class="cls-11" cx="683.24" cy="100.55" r="1.19" transform="translate(-2.04 15) rotate(-1.26)"/><circle class="cls-11" cx="670.24" cy="111.03" r="1.79" transform="translate(-2.28 14.78) rotate(-1.26)"/><circle class="cls-11" cx="771.65" cy="63.16" r="1.79" transform="translate(-1.2 16.89) rotate(-1.25)"/><circle class="cls-11" cx="761.76" cy="85.6" r="1.79" transform="translate(-1.7 16.79) rotate(-1.26)"/><circle class="cls-11" cx="872.01" cy="94.28" r="1.79" transform="translate(-1.85 19.1) rotate(-1.25)"/><circle class="cls-11" cx="884.68" cy="140.77" r="1.79" transform="translate(-2.87 19.38) rotate(-1.25)"/><circle class="cls-11" cx="888.27" cy="183.89" r="1.79" transform="translate(-3.84 19.63) rotate(-1.26)"/><circle class="cls-11" cx="882.23" cy="222.12" r="1.79" transform="translate(-4.7 19.59) rotate(-1.27)"/><circle class="cls-11" cx="839.98" cy="225.7" r="1.79" transform="translate(-4.73 18.41) rotate(-1.25)"/><circle class="cls-11" cx="828.45" cy="255.05" r="1.79" transform="translate(-5.45 18.42) rotate(-1.27)"/><circle class="cls-11" cx="795.28" cy="242.43" r="1.78" transform="translate(-5.15 17.57) rotate(-1.26)"/><circle class="cls-11" cx="774.18" cy="241.43" r="1.79" transform="translate(-5.13 17.1) rotate(-1.26)"/><circle class="cls-11" cx="746.14" cy="265.86" r="1.79" transform="translate(-5.6 16.28) rotate(-1.25)"/><circle class="cls-11" cx="709.4" cy="231.41" r="1.79" transform="translate(-4.9 15.59) rotate(-1.25)"/><circle class="cls-11" cx="677.61" cy="181.64" r="1.79" transform="translate(-3.83 14.96) rotate(-1.26)"/><circle class="cls-11" cx="847.84" cy="77.88" r="1.79" transform="translate(-1.5 18.57) rotate(-1.25)"/><circle class="cls-11" cx="665.52" cy="145.92" r="2.01" transform="translate(-3.08 14.83) rotate(-1.27)"/><circle class="cls-11" cx="680.23" cy="156.18" r="1" transform="translate(-3.29 15.08) rotate(-1.27)"/><circle class="cls-11" cx="664.64" cy="193.09" r="1" transform="translate(-4.06 14.57) rotate(-1.25)"/><circle class="cls-11" cx="712.35" cy="242.79" r="1" transform="matrix(1, -0.02, 0.02, 1, -5.21, 15.85)"/><circle class="cls-11" cx="785.23" cy="70.21" r="1" transform="translate(-1.36 17.42) rotate(-1.27)"/><circle class="cls-11" cx="850.77" cy="69.35" r="1" transform="translate(-1.32 18.82) rotate(-1.27)"/><circle class="cls-11" cx="871.85" cy="108.58" r="1" transform="translate(-2.16 19.07) rotate(-1.25)"/><circle class="cls-11" cx="861.78" cy="85.99" r="1" transform="translate(-1.68 18.91) rotate(-1.26)"/><circle class="cls-11" cx="892.98" cy="154.68" r="1" transform="translate(-3.21 19.82) rotate(-1.27)"/><circle class="cls-11" cx="874.8" cy="148.67" r="1" transform="translate(-3.07 19.37) rotate(-1.27)"/><circle class="cls-11" cx="894.37" cy="193.81" r="1" transform="matrix(1, -0.02, 0.02, 1, -4.06, 19.81)"/><circle class="cls-11" cx="896.04" cy="224.46" r="1" transform="translate(-4.65 19.47) rotate(-1.24)"/><circle class="cls-11" cx="851.22" cy="233.91" r="1" transform="translate(-4.96 18.88) rotate(-1.27)"/><circle class="cls-11" cx="832.94" cy="266.6" r="1" transform="translate(-5.58 18.12) rotate(-1.24)"/><circle class="cls-11" cx="799.89" cy="253.04" r="1" transform="translate(-5.4 17.74) rotate(-1.27)"/><circle class="cls-11" cx="768.05" cy="227.22" r="1" transform="translate(-4.84 17.07) rotate(-1.27)"/><circle class="cls-11" cx="763.02" cy="285.07" r="1" transform="translate(-5.98 16.56) rotate(-1.24)"/><circle class="cls-11" cx="747.23" cy="291.24" r="1" transform="translate(-6.2 16.45) rotate(-1.26)"/><circle class="cls-12" cx="715.81" cy="137.88" r="1" transform="translate(-2.81 15.5) rotate(-1.24)"/><circle class="cls-11" cx="756.16" cy="69.32" r="1" transform="translate(-1.33 16.54) rotate(-1.25)"/><polygon class="cls-2" points="716.26 69.01 709.09 69.53 714.78 73.93 708.67 70.14 710.69 77.04 707.98 70.38 705.55 77.16 707.27 70.17 701.33 74.23 706.83 69.58 699.63 69.37 706.81 68.85 701.12 64.45 707.23 68.24 705.21 61.34 707.92 68 710.34 61.23 708.62 68.21 714.57 64.15 709.07 68.8 716.26 69.01"/><polygon class="cls-2" points="907.02 132.31 899.85 132.83 905.54 137.23 899.43 133.44 901.45 140.34 898.74 133.68 896.32 140.45 898.04 133.47 892.09 137.53 897.59 132.88 890.4 132.67 897.57 132.15 891.88 127.75 897.99 131.54 895.97 124.64 898.69 131.3 901.11 124.52 899.38 131.51 905.33 127.45 899.83 132.1 907.02 132.31"/><polygon class="cls-2" points="856.59 245.28 849.42 245.8 855.11 250.2 849 246.41 851.02 253.31 848.31 246.65 845.88 253.43 847.6 246.44 841.66 250.5 847.16 245.85 839.96 245.64 847.14 245.12 841.45 240.72 847.56 244.51 845.54 237.61 848.25 244.27 850.67 237.5 848.96 244.48 854.9 240.42 849.4 245.07 856.59 245.28"/><polygon class="cls-2" points="707.31 255.7 700.13 256.22 705.83 260.62 699.71 256.83 701.74 263.73 699.02 257.07 696.6 263.85 698.32 256.86 692.38 260.92 697.87 256.27 690.68 256.06 697.85 255.54 692.16 251.14 698.28 254.93 696.25 248.03 698.97 254.69 701.39 247.91 699.67 254.9 705.61 250.84 700.12 255.49 707.31 255.7"/><polygon class="cls-2" points="667.1 135.93 659.93 136.46 665.62 140.85 659.5 137.06 661.53 143.96 658.81 137.3 656.39 144.08 658.11 137.09 652.17 141.15 657.66 136.51 650.47 136.3 657.65 135.77 651.96 131.37 658.07 135.17 656.04 128.26 658.76 134.93 661.18 128.15 659.46 135.13 665.4 131.08 659.91 135.72 667.1 135.93"/><path class="cls-13" d="M541.08,92.52a51.44,51.44,0,0,0,.86,7c.33,2.55.64,5.09,1.09,7.63a110.15,110.15,0,0,0,3.45,13.95c1.4,4.4,3,8.74,4.65,13,1.74,4.58,3.79,9.05,5.49,13.65,1,2.63-3.56,3.95-4.13,1.24-.2-1-.18-1.94-.31-2.93-.17-1.22,1.56-1.84,2.34-1,.55.56,1,1.18,1.53,1.78l-3.33,2.69a143.6,143.6,0,0,1-9.07-27.59,135.91,135.91,0,0,1-2.4-14c-.28-2.43-.46-4.86-.56-7.3-.12-2.74.4-5.43.36-8.13a0,0,0,0,1,0,0Z"/><path class="cls-14" d="M545.31,83.49c7.52-6.22,16-12.77,26.37-16.44a101.05,101.05,0,0,1,15.75-4.21q4.11-.74,8.3-1.13c3.19-.3,6.47-.19,9.63-.55l-.73-3.51a13.07,13.07,0,0,0-3.63,1c-1.72.94-.62,2.76,1.49,2.43a6.88,6.88,0,0,1,2.21,0c3.45.57,4.21-3.3.58-3.53a54.73,54.73,0,0,0-9.63.65c-3,.36-6,.82-9,1.46a69,69,0,0,0-16,5.44c-10.07,5-18.53,11-25.42,18.33,0,0,0,.07.08,0Z"/><path class="cls-14" d="M546.3,87.15c15.57,6.3,32.4,13.78,46.45,26.48A173.5,173.5,0,0,1,612,134q4.48,5.62,8.51,11.64c3.06,4.58,5.58,9.64,8.7,14.13l4.71-4a22.41,22.41,0,0,0-4.55-4.63c-2.83-1.84-4.68,1.32-2.47,4.24a11.88,11.88,0,0,1,1.85,3.33c2,5.68,8.43,3.67,5.82-2-2.25-4.89-5.78-9.66-8.86-14s-6.16-8.45-9.53-12.38a118.8,118.8,0,0,0-21.36-19.84C579,99.35,563,91.42,546.3,87c-.08,0-.08.13,0,.16Z"/><path class="cls-15" d="M536.3,99.84c-2.51,9.43-4.92,19.87-3.93,30.83a100.9,100.9,0,0,0,2.75,16.07q1,4,2.44,8c1.06,3,2.53,6,3.52,9l-3.49.8a13,13,0,0,1-.56-3.73c.13-2,2.25-1.71,2.83.34a6.9,6.9,0,0,0,.9,2c2,2.9-1.24,5.2-3,2a54.92,54.92,0,0,1-3.43-9c-.94-2.89-1.77-5.81-2.42-8.75a68.91,68.91,0,0,1-1.75-16.85c.35-11.25,2.24-21.43,6-30.75,0,0,.08,0,.07.06Z"/><path class="cls-16" d="M527.12,79.81c-9-1.05-18-2.51-27.17-3a149.67,149.67,0,0,0-55.09,8.28c-9.5,3.42-18.21,8.15-27,13.31-5.09,3-8.17-4.94-2.6-7.62,1.51-.73,3-1.6,4.48-2.27,3.27-1.43,5.81,2,3.54,4.7-1.07,1.29-2.3,2.43-3.42,3.68l-5.69-5.47c17-11.19,37.61-17.3,56.68-19a150.23,150.23,0,0,1,29,.57c9.58,1,19,2.75,27.49,6.27.28.12.14.61-.21.57Z"/><path class="cls-16" d="M543,90.36c3.44,4.08,7,8,10.28,12.33A92.77,92.77,0,0,1,562,117.21a99.78,99.78,0,0,1,6.33,16.22,123,123,0,0,1,3.59,18.74c.48,3.73,4.74,2.11,4-1.73-.21-1-.33-2.11-.57-3.14-.51-2.19-2.73-2.12-3.09.1-.17,1-.22,2.11-.36,3.17l4.12.66a91.87,91.87,0,0,0-11.16-35.79,95.49,95.49,0,0,0-9.9-14.22A55.88,55.88,0,0,0,543.18,90c-.14-.09-.3.17-.16.33Z"/><path class="cls-15" d="M554.46,38.48a25.22,25.22,0,0,1,1.88-2.89c.7-1.06,1.38-2.11,2.13-3.13A54.07,54.07,0,0,1,563,27c1.56-1.64,3.21-3.21,4.87-4.77s3.62-3.19,5.36-4.85c1-1-.72-2.51-1.56-1.44-.3.39-.5.82-.77,1.23s.29,1.15.81,1c.36-.13.71-.3,1.06-.46l-.89-1.9a70.57,70.57,0,0,0-10,10.24,66.62,66.62,0,0,0-4.07,5.65c-.64,1-1.25,2.05-1.82,3.11s-1,2.49-1.59,3.67a0,0,0,1,0,0,0Z"/><path class="cls-13" d="M549.76,57.45a118.11,118.11,0,0,1,16.06-24A67.18,67.18,0,0,1,576,23.88a57.26,57.26,0,0,1,5.7-3.73c2.22-1.29,4.6-2.21,6.83-3.43,3-1.63.24-5.77-2.71-4.42a47.64,47.64,0,0,0-6.43,4.07c-2,1.38-3.91,3-5.79,4.52a74.78,74.78,0,0,0-10.13,10.35C557.14,39.08,553,48,549.43,57.32c-.07.19.24.31.33.13Z"/><path class="cls-17" d="M550.28,93.11a118.07,118.07,0,0,1,19.44,21.34,67.19,67.19,0,0,1,6.85,12.22,57.11,57.11,0,0,1,2.25,6.43c.72,2.47,1,5,1.69,7.45.87,3.3,5.54,1.62,4.94-1.58a47.45,47.45,0,0,0-2.41-7.22c-.85-2.29-1.93-4.51-3-6.71a74.55,74.55,0,0,0-7.62-12.32c-6.07-8.06-13.74-14.17-21.94-19.92-.17-.12-.36.16-.2.29Z"/><path class="cls-18" d="M573.2,86.19a118,118,0,0,1,27,10.32,67.35,67.35,0,0,1,11.61,7.84,56.87,56.87,0,0,1,4.9,4.73c1.76,1.88,3.18,4,4.86,5.9,2.26,2.55,5.68-1,3.7-3.63a47.58,47.58,0,0,0-5.4-5.37c-1.79-1.67-3.75-3.16-5.69-4.64a74.67,74.67,0,0,0-12.34-7.57c-9-4.46-18.64-6.48-28.55-7.92-.2,0-.25.3-.05.35Z"/><path class="cls-17" d="M544.63,81a114.26,114.26,0,0,1,15.55-23.22,65,65,0,0,1,9.9-9.27,55.24,55.24,0,0,1,5.52-3.61c2.15-1.25,4.45-2.14,6.61-3.32,2.9-1.58.24-5.59-2.63-4.27a46,46,0,0,0-6.23,3.94c-2,1.33-3.79,2.86-5.61,4.37a72.41,72.41,0,0,0-9.81,10c-6.16,7.58-10.13,16.2-13.63,25.24-.07.18.23.3.32.13Z"/><path class="cls-19" d="M619.32,125.89c5.63,3.55,8.69,9.5,11.53,15.27a1.54,1.54,0,0,0,1.3.83,1.45,1.45,0,0,0,1.37-.7,1.55,1.55,0,0,0,.08-1.57,33,33,0,0,0-14-14.23c-.26-.14-.52.23-.26.39Z"/><path class="cls-16" d="M559.65,65.82c15.17-12.28,34.57-15.18,53.25-17.62a4.53,4.53,0,0,0,3.53-2.83,4.27,4.27,0,0,0-.65-4.48,4.54,4.54,0,0,0-4.27-1.68c-19.38,2.55-38.66,12.1-52.7,25.52-.63.6.15,1.65.85,1.08Z"/><path class="cls-20" d="M544.59,44.5A30.7,30.7,0,0,1,548,38.34a23.49,23.49,0,0,1,5.12-5.84c1.63-1.36-.1-4.19-1.82-2.83a20.4,20.4,0,0,0-5,6.33c-1.51,2.74-1.86,5.32-2.33,8.34a.35.35,0,0,0,.68.16Z"/><path class="cls-21" d="M595.25,85a30.68,30.68,0,0,1,7,.92,23.48,23.48,0,0,1,7.29,2.67c1.85,1,3.87-1.61,2-2.72a20.39,20.39,0,0,0-7.71-2.39c-3.1-.42-5.63.18-8.62.83a.35.35,0,0,0,.1.69Z"/><path class="cls-22" d="M572.27,76.82a86.65,86.65,0,0,1,31-.88c10,1.61,20.24,5.52,27.44,12.84,2.62,2.67,6.23-1.44,3.36-3.9-8.24-7.07-18.9-10.46-29.52-11.87A76.57,76.57,0,0,0,572,75.46a.7.7,0,0,0,.3,1.37Z"/><path class="cls-23" d="M521.26,67.4c-4.43-2.9-8.68-6-13.35-8.64a85.13,85.13,0,0,0-15.08-6.58,87.23,87.23,0,0,0-16.22-3.83,104.11,104.11,0,0,0-18.06-.53c-3.55.14-2.83-4.6.87-4.45,1,0,2,0,3,.06,2.13.15,2.47,2.49.48,3.25-.94.36-1.92.6-2.87.92l-1.38-4.2a79.34,79.34,0,0,1,35.28,5.52,89.7,89.7,0,0,1,15,7.92,56.29,56.29,0,0,1,12.57,10.34c.11.13-.1.34-.28.23Z"/><path class="cls-14" d="M529.11,90.11c-4.16,1.69-8.37,3.19-12.47,5.15a72.43,72.43,0,0,0-11.76,7.21,71.28,71.28,0,0,0-10.28,9.19,81.5,81.5,0,0,0-8.71,11.88c-1.53,2.44-4.67-.13-2.85-2.55.49-.66.92-1.36,1.43-2,1.09-1.36,3-.56,2.6,1.11-.17.78-.45,1.55-.65,2.33l-3.71-.93A63.72,63.72,0,0,1,503,100.29a77.5,77.5,0,0,1,12.72-6.59,50.52,50.52,0,0,1,13.35-3.87c.15,0,.2.22,0,.29Z"/><path class="cls-22" d="M537.7,79c-2.92-5.38-5.57-10.84-8.86-16.09a94.28,94.28,0,0,0-11.65-14.73A93.52,93.52,0,0,0,503,35.84a109.09,109.09,0,0,0-17.76-9.69c-3.61-1.64-.45-6.4,3.18-4.37,1,.55,2,1,3,1.58a2,2,0,0,1-1.21,3.76c-1.12-.09-2.23-.32-3.35-.45l.8-5.24c12.74,5,24.06,14,32.37,23.78A100.87,100.87,0,0,1,530.9,61.36a66.16,66.16,0,0,1,7.19,17.53c0,.2-.28.32-.39.11Z"/><path class="cls-21" d="M524.94,88.26c-5.89.39-11.69.5-17.69,1.26A101.45,101.45,0,0,0,489,93.82a111,111,0,0,0-17.92,7.55,140,140,0,0,0-17.95,11.78c-3.4,2.53-5.23-2.23-1.53-4.61,1-.65,2-1.38,3-2,2.16-1.31,3.75.58,2.21,2.61-.73,1-1.56,1.84-2.32,2.78l-3.6-2.86a99.61,99.61,0,0,1,56.4-22c6.24-.49,12.34-.47,17.82.81.18,0,.08.38-.15.39Z"/><path class="cls-22" d="M539.86,90.44c-3.31,4.3-6.77,8.39-9.89,13a94.35,94.35,0,0,0-8.16,15.13,101.35,101.35,0,0,0-5.7,16.75,125.11,125.11,0,0,0-2.8,19.2c-.32,3.81-4.72,2.35-4.11-1.58.17-1.07.24-2.15.44-3.21.42-2.25,2.68-2.27,3.14,0,.22,1.05.32,2.14.51,3.2l-4.16.86a93.41,93.41,0,0,1,9.73-36.84A97,97,0,0,1,528.28,102a56.69,56.69,0,0,1,11.4-11.9c.14-.1.31.16.18.33Z"/><path class="cls-19" d="M491.33,64c-6.17-2.5-12.79-1.52-19.13-.46a1.55,1.55,0,0,1-1.43-.57,1.46,1.46,0,0,1-.23-1.53,1.55,1.55,0,0,1,1.23-1,33,33,0,0,1,19.74,3.1c.26.13.12.55-.17.44Z"/><path class="cls-20" d="M545.69,148.09a30.75,30.75,0,0,0,2.25,6.65,23.49,23.49,0,0,0,4,6.63c1.37,1.62-.83,4.11-2.28,2.47a20.42,20.42,0,0,1-3.84-7.1c-1-3-.92-5.56-.85-8.61a.35.35,0,0,1,.69,0Z"/><circle class="cls-22" cx="526.75" cy="31.41" r="2.34" transform="translate(-0.56 11.63) rotate(-1.26)"/><circle class="cls-22" cx="468" cy="36.65" r="0.88" transform="translate(-0.7 10.37) rotate(-1.27)"/><circle class="cls-22" cx="479.37" cy="29.51" r="1.32" transform="translate(-0.53 10.49) rotate(-1.25)"/><circle class="cls-22" cx="536.99" cy="1.32" r="1.31" transform="translate(0.1 11.82) rotate(-1.26)"/><circle class="cls-22" cx="529.7" cy="17.84" r="1.31" transform="translate(-0.26 11.67) rotate(-1.26)"/><circle class="cls-22" cx="601.12" cy="28.46" r="1.32" transform="matrix(1, -0.02, 0.02, 1, -0.48, 13.07)"/><circle class="cls-22" cx="620.24" cy="58.48" r="1.31" transform="translate(-1.14 13.67) rotate(-1.26)"/><circle class="cls-22" cx="622.89" cy="90.24" r="1.31" transform="translate(-1.87 13.98) rotate(-1.28)"/><circle class="cls-22" cx="618.44" cy="118.4" r="1.32" transform="translate(-2.47 13.72) rotate(-1.27)"/><circle class="cls-22" cx="587.32" cy="121.03" r="1.32" transform="translate(-2.54 13.04) rotate(-1.27)"/><circle class="cls-22" cx="578.83" cy="142.65" r="1.31" transform="translate(-3.02 12.86) rotate(-1.27)"/><circle class="cls-22" cx="554.39" cy="133.36" r="1.32" transform="matrix(1, -0.02, 0.02, 1, -2.82, 12.31)"/><circle class="cls-22" cx="538.85" cy="132.62" r="1.31" transform="translate(-2.77 11.82) rotate(-1.25)"/><circle class="cls-22" cx="518.2" cy="150.61" r="1.32" transform="translate(-3.13 11.22) rotate(-1.24)"/><circle class="cls-22" cx="491.14" cy="125.24" r="1.31" transform="matrix(1, -0.02, 0.02, 1, -2.63, 10.79)"/><circle class="cls-22" cx="593.11" cy="12.16" r="1.32" transform="translate(-0.12 12.97) rotate(-1.25)"/><circle class="cls-22" cx="444.02" cy="67.68" r="1.48" transform="translate(-1.39 9.84) rotate(-1.27)"/><circle class="cls-22" cx="469.66" cy="69.83" r="0.74" transform="translate(-1.44 10.52) rotate(-1.28)"/><circle class="cls-22" cx="458.17" cy="97.02" r="0.74" transform="translate(-2.01 10.03) rotate(-1.25)"/><circle class="cls-22" cx="493.32" cy="133.62" r="0.74" transform="translate(-2.86 11.06) rotate(-1.28)"/><circle class="cls-22" cx="546.99" cy="6.51" r="0.74" transform="translate(-0.01 11.98) rotate(-1.25)"/><circle class="cls-22" cx="595.27" cy="5.88" r="0.74" transform="translate(0.02 13.16) rotate(-1.27)"/><circle class="cls-22" cx="610.8" cy="34.77" r="0.74" transform="translate(-0.61 13.21) rotate(-1.24)"/><circle class="cls-22" cx="603.37" cy="18.13" r="0.74" transform="translate(-0.25 13.35) rotate(-1.27)"/><circle class="cls-22" cx="626.35" cy="68.72" r="0.74" transform="translate(-1.36 13.75) rotate(-1.26)"/><circle class="cls-22" cx="612.96" cy="64.3" r="0.74" transform="translate(-1.27 13.56) rotate(-1.27)"/><circle class="cls-22" cx="627.38" cy="97.54" r="0.74" transform="translate(-1.98 13.74) rotate(-1.25)"/><circle class="cls-22" cx="628.61" cy="120.12" r="0.74" transform="translate(-2.48 13.81) rotate(-1.26)"/><circle class="cls-22" cx="595.6" cy="127.08" r="0.74" transform="translate(-2.63 13.04) rotate(-1.25)"/><circle class="cls-22" cx="582.14" cy="151.16" r="0.74" transform="translate(-3.1 12.5) rotate(-1.23)"/><circle class="cls-22" cx="557.79" cy="141.17" r="0.74" transform="translate(-3.02 12.52) rotate(-1.28)"/><circle class="cls-22" cx="534.34" cy="122.16" r="0.74" transform="matrix(1, -0.02, 0.02, 1, -2.6, 11.99)"/><circle class="cls-22" cx="530.64" cy="164.76" r="0.74" transform="translate(-3.4 11.39) rotate(-1.23)"/><circle class="cls-22" cx="519.01" cy="169.3" r="0.74" transform="translate(-3.58 11.38) rotate(-1.25)"/><circle class="cls-22" cx="495.86" cy="56.36" r="0.74" transform="translate(-1.11 10.85) rotate(-1.25)"/><circle class="cls-22" cx="525.58" cy="5.85" r="0.74" transform="translate(0 11.52) rotate(-1.26)"/><polygon class="cls-22" points="520.34 18.75 515.06 19.13 519.25 22.37 514.75 19.58 516.24 24.66 514.24 19.76 512.45 24.75 513.72 19.6 509.34 22.59 513.39 19.17 508.09 19.02 513.38 18.63 509.19 15.39 513.69 18.18 512.2 13.1 514.2 18.01 515.98 13.01 514.71 18.16 519.09 15.17 515.04 18.59 520.34 18.75"/><polygon class="cls-22" points="552.07 23.54 546.79 23.93 550.98 27.17 546.48 24.37 547.97 29.46 545.97 24.55 544.18 29.54 545.45 24.39 541.07 27.38 545.12 23.96 539.82 23.81 545.11 23.42 540.92 20.18 545.42 22.98 543.93 17.89 545.93 22.8 547.71 17.81 546.44 22.95 550.82 19.96 546.77 23.38 552.07 23.54"/><polygon class="cls-22" points="609.2 138.53 603.91 138.91 608.11 142.15 603.6 139.36 605.09 144.44 603.09 139.53 601.31 144.53 602.58 139.38 598.2 142.37 602.25 138.95 596.95 138.8 602.24 138.41 598.04 135.17 602.54 137.96 601.05 132.88 603.05 137.79 604.84 132.79 603.57 137.94 607.95 134.95 603.9 138.37 609.2 138.53"/><polygon class="cls-22" points="462.64 131.67 457.36 132.06 461.55 135.3 457.05 132.5 458.54 137.59 456.54 132.68 454.75 137.67 456.02 132.53 451.64 135.52 455.69 132.1 450.39 131.94 455.68 131.55 451.49 128.31 455.99 131.11 454.5 126.02 456.5 130.93 458.28 125.94 457.01 131.09 461.39 128.1 457.34 131.52 462.64 131.67"/><polygon class="cls-22" points="636.52 45.68 631.24 46.07 635.43 49.31 630.93 46.52 632.42 51.6 630.42 46.69 628.64 51.68 629.9 46.54 625.53 49.53 629.58 46.11 624.28 45.95 629.56 45.56 625.37 42.33 629.87 45.12 628.38 40.03 630.38 44.94 632.16 39.95 630.9 45.1 635.27 42.11 631.23 45.53 636.52 45.68"/><path class="cls-13" d="M1067.79,226a34.49,34.49,0,0,0,.57,4.65c.22,1.7.43,3.4.73,5.09a73.49,73.49,0,0,0,2.3,9.3c.93,2.93,2,5.83,3.1,8.7,1.16,3.06,2.53,6,3.66,9.1.65,1.75-2.38,2.63-2.75.83-.14-.65-.12-1.3-.21-2-.11-.81,1-1.23,1.56-.69.36.37.68.79,1,1.19l-2.22,1.79a95.79,95.79,0,0,1-6.05-18.4,90.84,90.84,0,0,1-1.6-9.31c-.19-1.62-.3-3.24-.38-4.87-.08-1.83.27-3.62.24-5.43,0,0,0,0,0,0Z"/><path class="cls-14" d="M1070.62,220c5-4.15,10.67-8.52,17.59-11a67.29,67.29,0,0,1,10.51-2.81q2.74-.49,5.54-.76c2.13-.2,4.31-.13,6.42-.37l-.49-2.34a8.7,8.7,0,0,0-2.42.7c-1.15.63-.41,1.84,1,1.62a4.61,4.61,0,0,1,1.48,0c2.3.38,2.81-2.2.39-2.36a36.46,36.46,0,0,0-6.42.44c-2,.24-4,.54-6,1a46.07,46.07,0,0,0-10.7,3.63,58.76,58.76,0,0,0-17,12.22s0,0,.05,0Z"/><path class="cls-14" d="M1071.27,222.46c10.38,4.2,21.61,9.19,31,17.67a115.67,115.67,0,0,1,12.84,13.61q3,3.75,5.67,7.76c2,3.06,3.72,6.43,5.8,9.43l3.14-2.65a15,15,0,0,0-3-3.09c-1.89-1.23-3.12.88-1.65,2.83a8,8,0,0,1,1.24,2.22c1.31,3.79,5.62,2.45,3.88-1.34a62.52,62.52,0,0,0-5.91-9.36c-2-2.86-4.11-5.64-6.36-8.26A79.19,79.19,0,0,0,1103.64,238c-10.56-7.43-21.2-12.72-32.36-15.68-.05,0-.05.08,0,.11Z"/><path class="cls-15" d="M1064.6,230.93c-1.68,6.29-3.28,13.25-2.62,20.56a67.26,67.26,0,0,0,1.83,10.72q.7,2.7,1.63,5.35c.71,2,1.69,4,2.35,6l-2.33.53a8.67,8.67,0,0,1-.37-2.49c.09-1.31,1.5-1.14,1.89.22a4.62,4.62,0,0,0,.6,1.35c1.3,1.93-.83,3.47-2,1.34a36.45,36.45,0,0,1-2.29-6c-.63-1.93-1.18-3.88-1.61-5.84a46,46,0,0,1-1.17-11.24,58.76,58.76,0,0,1,4-20.51s.06,0,0,0Z"/><path class="cls-16" d="M1058.48,217.56c-6-.7-12-1.67-18.12-2a99.84,99.84,0,0,0-36.75,5.52,108.26,108.26,0,0,0-18,8.88c-3.4,2-5.45-3.3-1.73-5.08,1-.48,2-1.07,3-1.51a2,2,0,0,1,2.36,3.13c-.71.86-1.54,1.62-2.28,2.46l-3.8-3.65c11.36-7.46,25.09-11.54,37.8-12.68a100.24,100.24,0,0,1,19.35.38,65.71,65.71,0,0,1,18.33,4.19c.19.08.1.41-.14.38Z"/><path class="cls-16" d="M1069.08,224.61c2.3,2.72,4.68,5.31,6.86,8.23a61.92,61.92,0,0,1,5.78,9.68,66.46,66.46,0,0,1,4.22,10.82,82.06,82.06,0,0,1,2.39,12.5c.32,2.49,3.16,1.4,2.65-1.16-.14-.69-.22-1.4-.38-2.09-.34-1.46-1.82-1.41-2.06.07-.11.7-.15,1.41-.24,2.11l2.75.44a61.26,61.26,0,0,0-7.44-23.87,63.74,63.74,0,0,0-6.6-9.48,37.24,37.24,0,0,0-7.81-7.47c-.09-.06-.2.11-.11.22Z"/><path class="cls-15" d="M1076.72,190a17,17,0,0,1,1.25-1.93c.47-.7.92-1.41,1.42-2.09a36.17,36.17,0,0,1,3-3.61c1-1.1,2.14-2.14,3.24-3.18s2.42-2.12,3.58-3.23c.66-.64-.48-1.68-1-1-.2.26-.33.55-.51.82s.19.77.54.64.47-.2.71-.3l-.6-1.27a47.16,47.16,0,0,0-6.64,6.83,44.92,44.92,0,0,0-2.71,3.77c-.43.68-.83,1.37-1.21,2.07s-.66,1.66-1.06,2.45Z"/><path class="cls-13" d="M1073.58,202.65a78.76,78.76,0,0,1,10.71-16,44.79,44.79,0,0,1,6.82-6.39,38.09,38.09,0,0,1,3.8-2.48c1.48-.86,3.07-1.47,4.55-2.29,2-1.09.16-3.85-1.81-2.95a31.81,31.81,0,0,0-4.29,2.72c-1.35.92-2.61,2-3.86,3a49.86,49.86,0,0,0-6.76,6.9c-4.24,5.22-7,11.16-9.39,17.39,0,.13.16.21.22.09Z"/><path class="cls-17" d="M1073.93,226.44a78.75,78.75,0,0,1,13,14.24,44.82,44.82,0,0,1,4.57,8.15,38.08,38.08,0,0,1,1.5,4.29c.48,1.65.7,3.33,1.13,5,.58,2.2,3.7,1.08,3.29-1.05a31.77,31.77,0,0,0-1.61-4.82c-.57-1.53-1.29-3-2-4.47a49.84,49.84,0,0,0-5.08-8.21c-4.05-5.37-9.16-9.45-14.63-13.28-.11-.08-.24.11-.14.19Z"/><path class="cls-18" d="M1089.22,221.83a78.72,78.72,0,0,1,18,6.88,44.91,44.91,0,0,1,7.75,5.23,38.14,38.14,0,0,1,3.27,3.16c1.17,1.25,2.12,2.66,3.24,3.93,1.51,1.7,3.79-.7,2.47-2.42a31.78,31.78,0,0,0-3.6-3.58c-1.19-1.11-2.5-2.11-3.8-3.1a49.81,49.81,0,0,0-8.23-5.05c-6-3-12.43-4.32-19-5.29-.13,0-.17.2,0,.23Z"/><path class="cls-17" d="M1070.16,218.37a76.21,76.21,0,0,1,10.37-15.49,43.36,43.36,0,0,1,6.6-6.19,37,37,0,0,1,3.68-2.41c1.44-.84,3-1.43,4.41-2.21,1.93-1.06.16-3.73-1.75-2.85a30.71,30.71,0,0,0-4.15,2.63c-1.31.89-2.53,1.91-3.74,2.92a48.22,48.22,0,0,0-6.54,6.68c-4.11,5.05-6.76,10.8-9.09,16.83,0,.12.15.2.21.08Z"/><path class="cls-19" d="M1120,248.3c3.76,2.37,5.8,6.34,7.69,10.19a1,1,0,0,0,.87.55,1,1,0,0,0,.92-.47,1,1,0,0,0,.05-1,22,22,0,0,0-9.35-9.49c-.18-.09-.34.15-.17.26Z"/><path class="cls-16" d="M1080.18,208.24c10.12-8.19,23.06-10.12,35.52-11.75a3,3,0,0,0,2.36-1.89,2.85,2.85,0,0,0-.44-3,3,3,0,0,0-2.85-1.12,64.47,64.47,0,0,0-35.15,17c-.42.4.1,1.1.57.72Z"/><path class="cls-20" d="M1070.13,194a20.46,20.46,0,0,1,2.25-4.11,15.66,15.66,0,0,1,3.41-3.89c1.09-.9-.07-2.79-1.21-1.89a13.62,13.62,0,0,0-3.34,4.22,15.58,15.58,0,0,0-1.55,5.56.23.23,0,0,0,.45.1Z"/><path class="cls-21" d="M1103.92,221a20.51,20.51,0,0,1,4.64.62,15.65,15.65,0,0,1,4.86,1.78c1.23.69,2.58-1.07,1.32-1.81a13.61,13.61,0,0,0-5.15-1.6,15.59,15.59,0,0,0-5.75.55.23.23,0,0,0,.07.46Z"/><path class="cls-22" d="M1088.59,215.58a57.82,57.82,0,0,1,20.68-.59c6.66,1.07,13.5,3.68,18.3,8.56,1.75,1.78,4.15-1,2.24-2.6-5.5-4.72-12.61-7-19.69-7.92a51.07,51.07,0,0,0-21.74,1.63.47.47,0,0,0,.2.91Z"/><path class="cls-23" d="M1054.57,209.29c-3-1.94-5.79-4-8.91-5.77a56.84,56.84,0,0,0-10.06-4.39,58.14,58.14,0,0,0-10.82-2.56,69.5,69.5,0,0,0-12-.35c-2.37.09-1.89-3.07.58-3,.67,0,1.34,0,2,0a1.1,1.1,0,0,1,.32,2.17c-.62.24-1.28.4-1.92.62l-.92-2.8a52.92,52.92,0,0,1,23.53,3.68,59.81,59.81,0,0,1,10,5.28,37.54,37.54,0,0,1,8.38,6.9c.08.09-.07.23-.18.15Z"/><path class="cls-14" d="M1059.81,224.44c-2.78,1.13-5.58,2.13-8.32,3.43a48.3,48.3,0,0,0-7.84,4.81,47.51,47.51,0,0,0-6.86,6.13,54.34,54.34,0,0,0-5.81,7.92c-1,1.63-3.11-.08-1.9-1.7.33-.44.61-.91,1-1.33.73-.91,2-.37,1.73.74-.12.52-.3,1-.43,1.56l-2.47-.62a42.5,42.5,0,0,1,13.54-14.16,51.62,51.62,0,0,1,8.48-4.4,33.74,33.74,0,0,1,8.9-2.58c.1,0,.13.15,0,.19Z"/><path class="cls-22" d="M1065.53,217c-1.95-3.58-3.72-7.23-5.91-10.73a67.12,67.12,0,0,0-17.25-18,72.71,72.71,0,0,0-11.85-6.46c-2.41-1.1-.3-4.27,2.12-2.92.66.37,1.35.67,2,1.06a1.33,1.33,0,0,1-.81,2.51c-.75-.06-1.48-.22-2.23-.3l.53-3.5a56.23,56.23,0,0,1,21.59,15.86,67.36,67.36,0,0,1,7.27,10.77,44.14,44.14,0,0,1,4.79,11.69c0,.13-.19.21-.26.07Z"/><path class="cls-21" d="M1057,223.2c-3.93.26-7.8.34-11.8.84a67.63,67.63,0,0,0-12.19,2.86,74,74,0,0,0-12,5,93.26,93.26,0,0,0-12,7.86c-2.27,1.69-3.49-1.49-1-3.08.67-.43,1.31-.92,2-1.33,1.44-.87,2.5.38,1.47,1.74-.48.64-1,1.23-1.54,1.86l-2.4-1.91a66.45,66.45,0,0,1,37.62-14.69,39.73,39.73,0,0,1,11.89.54c.12,0,.05.25-.1.26Z"/><path class="cls-22" d="M1067,224.66c-2.21,2.87-4.51,5.6-6.6,8.66a62.94,62.94,0,0,0-5.44,10.09,67.6,67.6,0,0,0-3.8,11.17,83.43,83.43,0,0,0-1.87,12.81c-.22,2.54-3.15,1.57-2.74-1.06.11-.71.16-1.44.29-2.14.28-1.5,1.79-1.52,2.1,0,.14.7.21,1.43.34,2.13l-2.77.57A62.3,62.3,0,0,1,1053,242.3a64.59,64.59,0,0,1,6.28-9.93,37.83,37.83,0,0,1,7.6-7.94c.09-.07.21.11.12.22Z"/><path class="cls-19" d="M1034.61,207c-4.11-1.67-8.53-1-12.76-.31a1,1,0,0,1-1-.38,1,1,0,0,1-.15-1,1,1,0,0,1,.82-.65,22,22,0,0,1,13.17,2.07c.18.09.08.37-.11.29Z"/><path class="cls-20" d="M1070.87,263.11a20.46,20.46,0,0,0,1.5,4.43,15.67,15.67,0,0,0,2.69,4.43c.92,1.08-.55,2.74-1.52,1.65a13.62,13.62,0,0,1-2.56-4.74,15.6,15.6,0,0,1-.57-5.75.23.23,0,0,1,.46,0Z"/><circle class="cls-22" cx="1058.23" cy="185.28" r="1.56" transform="translate(-3.86 23.59) rotate(-1.27)"/><circle class="cls-22" cx="1019.05" cy="188.78" r="0.58" transform="translate(-3.86 22.17) rotate(-1.24)"/><circle class="cls-22" cx="1026.63" cy="184.02" r="0.88" transform="translate(-3.84 22.87) rotate(-1.27)"/><circle class="cls-22" cx="1065.06" cy="165.21" r="0.88" transform="translate(-3.34 23.18) rotate(-1.25)"/><circle class="cls-22" cx="1060.2" cy="176.24" r="0.88" transform="translate(-3.58 23.07) rotate(-1.24)"/><circle class="cls-22" cx="1107.84" cy="183.31" r="0.88" transform="translate(-3.76 24.41) rotate(-1.26)"/><circle class="cls-22" cx="1120.59" cy="203.34" r="0.88" transform="translate(-4.24 24.96) rotate(-1.27)"/><circle class="cls-22" cx="1122.36" cy="224.52" r="0.88" transform="translate(-4.67 24.76) rotate(-1.26)"/><circle class="cls-22" cx="1119.39" cy="243.3" r="0.88" transform="translate(-5.07 24.62) rotate(-1.26)"/><circle class="cls-22" cx="1098.63" cy="245.06" r="0.88" transform="translate(-5.12 24.23) rotate(-1.26)"/><circle class="cls-22" cx="1092.97" cy="259.48" r="0.88" transform="translate(-5.43 24.05) rotate(-1.26)"/><circle class="cls-22" cx="1076.67" cy="253.28" r="0.88" transform="translate(-5.31 23.76) rotate(-1.26)"/><circle class="cls-22" cx="1066.31" cy="252.79" r="0.88" transform="translate(-5.24 23.22) rotate(-1.24)"/><circle class="cls-22" cx="1052.53" cy="264.79" r="0.88" transform="translate(-5.57 23.23) rotate(-1.26)"/><circle class="cls-22" cx="1034.48" cy="247.87" r="0.88" transform="translate(-5.2 22.83) rotate(-1.26)"/><circle class="cls-22" cx="1102.5" cy="172.45" r="0.88" transform="translate(-3.48 23.91) rotate(-1.24)"/><circle class="cls-22" cx="1003.05" cy="209.48" r="0.99" transform="translate(-4.37 22.16) rotate(-1.26)"/><circle class="cls-22" cx="1020.15" cy="210.91" r="0.49" transform="translate(-4.53 23.21) rotate(-1.3)"/><circle class="cls-22" cx="1012.49" cy="229.05" r="0.49" transform="translate(-5.04 23.56) rotate(-1.33)"/><circle class="cls-22" cx="1035.93" cy="253.46" r="0.49" transform="translate(-5.39 23.16) rotate(-1.28)"/><circle class="cls-22" cx="1071.74" cy="168.68" r="0.49" transform="translate(-3.57 24.47) rotate(-1.31)"/><circle class="cls-22" cx="1103.94" cy="168.26" r="0.49" transform="translate(-3.4 24.08) rotate(-1.25)"/><circle class="cls-22" cx="1114.29" cy="187.52" r="0.49" transform="translate(-3.8 24.2) rotate(-1.24)"/><circle class="cls-22" cx="1109.34" cy="176.43" r="0.49" transform="translate(-3.65 24.69) rotate(-1.27)"/><circle class="cls-22" cx="1124.67" cy="210.17" r="0.49" transform="translate(-4.31 24.55) rotate(-1.25)"/><circle class="cls-22" cx="1115.74" cy="207.22" r="0.49" transform="translate(-4.35 24.95) rotate(-1.28)"/><circle class="cls-22" cx="1125.35" cy="229.4" r="0.49" transform="translate(-4.73 24.57) rotate(-1.25)"/><circle class="cls-22" cx="1126.18" cy="244.46" r="0.49" transform="translate(-4.95 24.04) rotate(-1.22)"/><circle class="cls-22" cx="1104.16" cy="249.1" r="0.49" transform="translate(-5.28 24.68) rotate(-1.28)"/><circle class="cls-22" cx="1095.18" cy="265.15" r="0.49" transform="translate(-5.5 23.84) rotate(-1.24)"/><circle class="cls-22" cx="1078.94" cy="258.49" r="0.49" transform="translate(-5.38 23.58) rotate(-1.25)"/><circle class="cls-22" cx="1063.3" cy="245.81" r="0.49" transform="translate(-5.1 23.22) rotate(-1.25)"/><circle class="cls-22" cx="1060.83" cy="274.23" r="0.49" transform="translate(-5.73 23.2) rotate(-1.25)"/><circle class="cls-22" cx="1053.07" cy="277.26" r="0.49" transform="translate(-5.77 22.91) rotate(-1.24)"/><circle class="cls-22" cx="1037.63" cy="201.92" r="0.49" transform="translate(-4.15 22.65) rotate(-1.25)"/><circle class="cls-22" cx="1057.46" cy="168.24" r="0.49" transform="translate(-3.41 23.07) rotate(-1.25)"/><polygon class="cls-22" points="1053.96 176.84 1050.43 177.1 1053.23 179.26 1050.23 177.39 1051.22 180.78 1049.89 177.51 1048.7 180.84 1049.54 177.41 1046.62 179.4 1049.32 177.12 1045.79 177.02 1049.32 176.76 1046.52 174.6 1049.52 176.46 1048.53 173.07 1049.86 176.34 1051.05 173.01 1050.21 176.45 1053.13 174.45 1050.43 176.73 1053.96 176.84"/><polygon class="cls-22" points="1075.12 180.03 1071.6 180.29 1074.39 182.45 1071.39 180.59 1072.39 183.98 1071.05 180.71 1069.86 184.04 1070.71 180.6 1067.79 182.6 1070.49 180.32 1066.95 180.21 1070.48 179.96 1067.68 177.79 1070.69 179.66 1069.69 176.27 1071.03 179.54 1072.21 176.21 1071.37 179.64 1074.29 177.65 1071.59 179.93 1075.12 180.03"/><polygon class="cls-22" points="1113.23 256.73 1109.7 256.99 1112.5 259.15 1109.49 257.29 1110.49 260.68 1109.15 257.4 1107.96 260.73 1108.81 257.3 1105.89 259.3 1108.59 257.01 1105.06 256.91 1108.58 256.65 1105.79 254.49 1108.79 256.36 1107.79 252.96 1109.13 256.24 1110.32 252.91 1109.47 256.34 1112.39 254.35 1109.69 256.63 1113.23 256.73"/><polygon class="cls-22" points="1015.47 252.16 1011.95 252.42 1014.75 254.58 1011.74 252.71 1012.74 256.11 1011.4 252.83 1010.21 256.16 1011.06 252.73 1008.14 254.72 1010.84 252.44 1007.3 252.34 1010.83 252.08 1008.03 249.92 1011.04 251.78 1010.04 248.39 1011.38 251.66 1012.57 248.34 1011.72 251.77 1014.64 249.77 1011.94 252.06 1015.47 252.16"/><polygon class="cls-22" points="1131.45 194.81 1127.93 195.06 1130.73 197.22 1127.72 195.36 1128.72 198.75 1127.38 195.48 1126.19 198.81 1127.04 195.37 1124.12 197.37 1126.82 195.09 1123.29 194.98 1126.81 194.73 1124.01 192.56 1127.02 194.43 1126.02 191.04 1127.36 194.31 1128.55 190.98 1127.7 194.41 1130.62 192.42 1127.92 194.7 1131.45 194.81"/><path class="cls-24" d="M316.55,147.79c3.78-2.76,7.35-5.6,11.42-8.25a98.26,98.26,0,0,1,13.53-7.18,114.21,114.21,0,0,1,15.22-5.54,148.87,148.87,0,0,1,17.7-3.66c3.53-.56,1.86-3.61-1.76-2.83-1,.21-2,.36-3,.59-2.07.49-1.93,2.13.19,2.27,1,.07,2,0,3,.1l.51-3.08a107.61,107.61,0,0,0-33.67,10.16,97,97,0,0,0-13.22,8.07,49.39,49.39,0,0,0-10.3,9.24c-.09.11.17.21.32.1Z"/><path class="cls-25" d="M297.37,168.71c5.19-3.1,10.25-6.43,15.63-9.2a85.9,85.9,0,0,1,16.85-6.38,78,78,0,0,1,17.31-2.77A84.49,84.49,0,0,1,365.48,152c3.54.62,4-5.44.24-5.73-1-.08-2-.27-3.05-.31a2.22,2.22,0,0,0-1.3,4c.85.57,1.78,1,2.66,1.53l2.45-5.12c-12-2.88-25.31-1.46-36.93,2.47A95.5,95.5,0,0,0,312.41,157a69.6,69.6,0,0,0-15.26,11.44c-.15.15,0,.44.22.32Z"/><path class="cls-24" d="M308.38,176.27c4.92,2.23,9.83,4.19,14.77,6.77a104.11,104.11,0,0,1,14.63,9.5,117.58,117.58,0,0,1,13.65,12.13,150,150,0,0,1,12.79,15.69c2.36,3.22,4.91-.18,2.26-3.38-.72-.87-1.38-1.79-2.12-2.64-1.57-1.8-3.31-.73-2.42,1.48.42,1,.94,2.05,1.39,3.08l3.66-1.24a109.85,109.85,0,0,0-27.87-28A104.57,104.57,0,0,0,323.65,181a56.28,56.28,0,0,0-15.32-5.08c-.16,0-.15.29,0,.38Z"/><path class="cls-26" d="M257.82,175.63c-5.83,1.62-11.73,3-17.45,5a85.84,85.84,0,0,0-16.25,7.78,77.92,77.92,0,0,0-14,10.61,84.5,84.5,0,0,0-11.47,14.38c-2,3-6.7-.85-4.31-3.78.65-.79,1.2-1.66,1.88-2.42A2.22,2.22,0,0,1,200.1,209c-.18,1-.51,2-.73,3l-5.4-1.76c6.23-10.69,16.42-19.31,27.28-25a95.54,95.54,0,0,1,17.67-6.82,69.61,69.61,0,0,1,18.81-3.14c.21,0,.31.32.08.38Z"/><path class="cls-27" d="M293.48,163.74c4.82-6.49,9.3-13.1,14.6-19.41a134.41,134.41,0,0,1,18.26-17.55,296.81,296.81,0,0,1,31.21-20.85c8.25-4.49,16.93-7.79,26-10.93,5.23-1.82,1.56-7.91-3.75-5.62-1.44.62-2.94,1.12-4.35,1.78-3,1.41-2.2,4.82,1.12,4.73,1.56,0,3.12-.27,4.69-.36L380.89,89c-18.34,5.46-45.05,22.28-58,33.93a140.1,140.1,0,0,0-17.45,19.36c-5.2,6.81-9.74,13.88-12.51,21.29-.09.25.34.41.53.16Z"/><path class="cls-28" d="M296.48,146.42c1.05-2.87,3-5.66,4.41-8.36,1.64-3.05,3.24-6.11,5-9.08a148.6,148.6,0,0,1,11-15.92c3.86-4.87,8-9.57,12.09-14.22,4.38-4.94,9.09-9.59,13.43-14.57,2.48-2.85-2.6-6.67-4.61-3.53-.72,1.13-1.15,2.36-1.79,3.53-.79,1.46,1.08,3.06,2.46,2.42,1-.45,1.85-1,2.77-1.51l-2.91-5a193.44,193.44,0,0,0-24.6,30.42,183.21,183.21,0,0,0-9.69,16.42c-1.51,2.92-2.89,5.91-4.2,8.93-1.46,3.39-2.08,7-3.42,10.42,0,0,0,0,0,0Z"/><path class="cls-29" d="M275.78,167.84c-3-.42-6.38,0-9.45,0-3.46,0-6.91,0-10.38.16a148.59,148.59,0,0,0-19.22,2.24c-6.11,1.12-12.19,2.54-18.23,4-6.42,1.55-12.74,3.52-19.17,5-3.68.85-4.67-5.43-.95-5.73,1.34-.11,2.63.09,4,.08,1.66,0,2.19,2.39,1,3.3-.84.63-1.75,1.17-2.64,1.74l-3-4.9a193.47,193.47,0,0,1,38.41-7.42,182.87,182.87,0,0,1,19-.84c3.29,0,6.58.22,9.85.49,3.68.3,7.18,1.46,10.81,1.87a0,0,0,0,1,0,0Z"/><path class="cls-30" d="M290.32,162.48c-.06-3.06.35-6.35.53-9.4.21-3.44.4-6.88.7-10.3.56-6.37,1.36-12.7,2.38-18.88,1-6,2.13-11.86,3.29-17.71,1.24-6.22,2.71-12.3,3.92-18.54.69-3.57-2.76-5.21-3.14-1.54-.14,1.32-.1,2.62-.19,3.95-.11,1.65,1.2,2.43,1.78,1.32.4-.77.75-1.62,1.12-2.44l-2.56-3.52a315,315,0,0,0-6.39,37.43c-.7,6.24-1.25,12.52-1.58,18.86-.17,3.28-.26,6.56-.3,9.85,0,3.69.39,7.3.41,10.94,0,0,0,0,0,0Z"/><path class="cls-28" d="M294,178.32c1.71,2.54,2.83,5.72,4.17,8.48,1.51,3.12,3,6.22,4.39,9.41a146.77,146.77,0,0,1,6.36,18.29c1.65,6,3,12.1,4.33,18.18,1.39,6.47,2.36,13,3.81,19.48.83,3.69,7,1.77,5.64-1.71-.49-1.25-1.23-2.32-1.81-3.53-.71-1.5-3.14-.9-3.44.6-.21,1-.3,2.1-.43,3.15l5.79.52a191.2,191.2,0,0,0-10-37.88,180.13,180.13,0,0,0-7.57-17.51c-1.48-2.94-3.08-5.82-4.76-8.64-1.88-3.17-4.47-5.81-6.43-8.88,0,0-.05,0,0,0Z"/><path class="cls-31" d="M295.37,175.23c15.3,7.32,31.43,25.85,46.86,43.94,1.29,1.52,2.72,2.18,3.56,1.73,1-.53,1.11-1.72.68-3.89a13.91,13.91,0,0,0-2.92-5.73c-16-18.75-33.84-32.4-48.56-37.72-.66-.24-.32,1.34.38,1.67Z"/><path class="cls-32" d="M302,170c8.27-.23,15.56.56,22.34,1,8,.55,38.57,7.17,43.42,8.79,3.92,1.31,5.75-3.68,1.91-5.08-4.82-1.76-24.87-6.54-33.51-6.95-9.94-.47-20.46.38-32.73,1.31-1.81.14-3.07.95-1.42.9Z"/><path class="cls-32" d="M281.37,173.65c-15.26,3.82-27.46,15.14-36.72,27.59-8.12,10.92-10.94,25.69-12.94,39.24-.57,3.83-1,7.69-1.33,11.56a2.87,2.87,0,0,1-2,2.47c-2.34.37-3.22-4.05-3.11-5.17,1.3-14.07,3.55-28.23,10.29-40.63a77.58,77.58,0,0,1,31.27-31A50.89,50.89,0,0,1,281.16,173c.42-.08.63.56.2.67Z"/><path class="cls-24" d="M262.1,142.85a41.11,41.11,0,0,0-4.63-3.2c-1.7-1.16-3.39-2.33-5.15-3.41a88.54,88.54,0,0,0-10.19-5.37c-3.38-1.51-6.84-2.86-10.29-4.18-3.67-1.4-7.44-2.56-11.09-4-2.09-.82-.46-4.24,1.46-3.13.69.4,1.26.93,1.92,1.37a1.12,1.12,0,0,1-.63,2c-.63,0-1.25,0-1.88,0q.08-1.71.17-3.42a115.11,115.11,0,0,1,21.35,9.29,108.68,108.68,0,0,1,9.63,6c1.6,1.13,3.15,2.32,4.67,3.56,1.7,1.39,3,3.13,4.67,4.56,0,0,0,0,0,0Z"/><path class="cls-24" d="M265.6,112.38c-1.81-3.16-5-6-7.48-8.66A38.29,38.29,0,0,0,248,96.16c-3.07-1.6-1.27-6.71,1.93-5.13A33.27,33.27,0,0,1,260,99.41c3.35,3.85,4.79,7.84,6.57,12.49a.57.57,0,0,1-1,.48Z"/><path class="cls-24" d="M243,189.13c-4.58.85-9.06,4.26-12.44,8.43a23.59,23.59,0,0,0-3.15,5.35c-.8,1.8-.94,4-2.26,5.61-1.49,1.81-3.62,2.12-4.36.35-1.72-4.08,4.88-11,8-14,4.35-4.15,9.47-6.52,14.39-6.64.5,0,.33.76-.17.86Z"/><path class="cls-33" d="M279.61,164.23a118.35,118.35,0,0,0-31.88-10.45,72.86,72.86,0,0,0-16.69-1,67.38,67.38,0,0,0-8.28,1.07c-3.13.57-6.17,1.65-9.26,2.31-4.14.88-3.91-5.55,0-6.68a56.25,56.25,0,0,1,9.26-1.34,85.9,85.9,0,0,1,8.87-.36,79.48,79.48,0,0,1,17.07,1.82c11.57,2.47,21.47,7.91,31.14,14.19.2.13-.05.51-.26.41Z"/><path class="cls-24" d="M288.48,180.66C286,195,283.78,210.79,286.67,227a152.45,152.45,0,0,0,6.14,23.6q2.06,5.9,4.63,11.65c2,4.38,4.5,8.57,6.36,13l-5.05,1.59a19.77,19.77,0,0,1-1.31-5.49c-.05-2.93,3.1-2.81,4.23.17a10.47,10.47,0,0,0,1.59,2.91c3.26,4.09-1.16,7.88-4.13,3.32-2.55-3.92-4.43-8.74-6.23-13s-3.37-8.45-4.71-12.74A104.15,104.15,0,0,1,283.43,227c-.93-16.78.55-32.15,4.94-46.46,0-.07.13,0,.12.07Z"/><path class="cls-27" d="M284.89,178.64c-6.88,11.67-14,24.72-16.76,39.76a140,140,0,0,0-2.32,22.52q-.11,5.79.26,11.63c.29,4.43,1.16,8.91,1.36,13.32l-5-.24a18.16,18.16,0,0,1,.64-5.2c.91-2.57,3.64-1.45,3.66,1.51a9.6,9.6,0,0,0,.45,3c1.53,4.6-3.6,6.49-4.72,1.57-1-4.23-1-9-1.21-13.34s-.2-8.44,0-12.6a95.7,95.7,0,0,1,3.95-23.19c4.67-14.91,11-27.81,19.55-38.86,0-.05.11,0,.08.1Z"/><path class="cls-25" d="M286,159.44a153.65,153.65,0,0,0-22.49-31.87,95.8,95.8,0,0,0-14.59-13,87.06,87.06,0,0,0-8.22-5.15c-3.21-1.81-6.66-3.13-9.89-4.84-4.33-2.29-.08-7.44,4.2-5.51a72.63,72.63,0,0,1,9.27,5.64c2.91,1.9,5.62,4,8.31,6.17a104.76,104.76,0,0,1,14.41,14c9,10.47,14.6,22.18,19.47,34.42.1.25-.37.38-.49.15Z"/><polygon class="cls-34" points="205.93 160.02 201.21 160.37 204.95 163.26 200.93 160.76 202.26 165.3 200.48 160.92 198.89 165.38 200.02 160.78 196.11 163.45 199.72 160.4 194.99 160.26 199.71 159.91 195.97 157.02 199.99 159.52 198.66 154.98 200.44 159.36 202.03 154.9 200.91 159.5 204.81 156.83 201.2 159.88 205.93 160.02"/><polygon class="cls-34" points="288.81 89.09 284.09 89.44 287.83 92.33 283.81 89.84 285.14 94.38 283.36 89.99 281.77 94.45 282.9 89.86 278.99 92.53 282.6 89.47 277.88 89.33 282.59 88.99 278.85 86.1 282.87 88.59 281.54 84.05 283.32 88.43 284.92 83.98 283.79 88.57 287.69 85.9 284.08 88.95 288.81 89.09"/><polygon class="cls-34" points="371.41 113.24 366.69 113.58 370.44 116.48 366.42 113.98 367.75 118.52 365.96 114.14 364.37 118.6 365.5 114 361.59 116.67 365.21 113.62 360.48 113.48 365.19 113.13 361.45 110.24 365.47 112.74 364.14 108.2 365.93 112.58 367.52 108.12 366.39 112.72 370.3 110.05 366.68 113.1 371.41 113.24"/><polygon class="cls-34" points="367.68 83.79 362.96 84.14 366.7 87.03 362.68 84.53 364.01 89.07 362.23 84.69 360.64 89.15 361.77 84.56 357.86 87.22 361.47 84.17 356.74 84.03 361.46 83.69 357.72 80.8 361.74 83.29 360.41 78.75 362.19 83.13 363.79 78.67 362.65 83.27 366.56 80.6 362.95 83.65 367.68 83.79"/><polygon class="cls-34" points="262.45 277.58 257.73 277.92 261.48 280.81 257.46 278.32 258.79 282.86 257 278.48 255.41 282.93 256.54 278.34 252.63 281.01 256.25 277.95 251.52 277.82 256.24 277.47 252.49 274.58 256.51 277.07 255.18 272.53 256.97 276.92 258.56 272.46 257.43 277.05 261.33 274.38 257.72 277.44 262.45 277.58"/><polygon class="cls-34" points="369.23 231.82 364.51 232.17 368.25 235.06 364.23 232.56 365.56 237.1 363.78 232.72 362.19 237.18 363.32 232.59 359.41 235.25 363.02 232.2 358.29 232.06 363.01 231.72 359.27 228.82 363.29 231.32 361.96 226.78 363.74 231.16 365.34 226.71 364.2 231.3 368.11 228.63 364.5 231.69 369.23 231.82"/><circle class="cls-25" cx="232.77" cy="136.6" r="1.69"/><circle class="cls-25" cx="208.62" cy="144.65" r="1.69"/><circle class="cls-25" cx="217.94" cy="130.25" r="1.06"/><circle class="cls-25" cx="202.48" cy="131.94" r="1.59"/><circle class="cls-25" cx="221.33" cy="139.99" r="1.06"/><circle class="cls-25" cx="278.31" cy="214.55" r="1.06"/><circle class="cls-25" cx="241.08" cy="239.39" r="1.06"/><circle class="cls-25" cx="225.99" cy="176.63" r="1.06"/><circle class="cls-25" cx="228.96" cy="163.08" r="1.06"/><circle class="cls-25" cx="273.44" cy="104.19" r="1.06"/><circle class="cls-25" cx="245.32" cy="247.87" r="1.06"/><circle class="cls-25" cx="219.21" cy="216.67" r="1.06"/><circle class="cls-25" cx="210.74" cy="181.93" r="1.06"/><circle class="cls-25" cx="271.11" cy="221.75" r="1.06"/><circle class="cls-25" cx="245.1" cy="256.34" r="1.06"/><circle class="cls-25" cx="304.15" cy="248.04" r="1.06"/><circle class="cls-25" cx="341.01" cy="225.98" r="1.06"/><circle class="cls-25" cx="350.11" cy="188.07" r="1.06"/><circle class="cls-25" cx="349.27" cy="138.51" r="1.06"/><circle class="cls-25" cx="352.87" cy="158.2" r="1.06"/><circle class="cls-25" cx="341.01" cy="155.24" r="1.06"/><circle class="cls-25" cx="329.15" cy="144.22" r="1.06"/><circle class="cls-25" cx="344.82" cy="119.23" r="1.06"/><circle class="cls-25" cx="336.77" cy="107.79" r="1.06"/><circle class="cls-25" cx="337.62" cy="95.08" r="1.06"/><circle class="cls-25" cx="316.44" cy="89.58" r="1.06"/><circle class="cls-25" cx="312.62" cy="103.13" r="1.06"/><circle class="cls-25" cx="269.84" cy="90" r="1.06"/><circle class="cls-25" cx="240.4" cy="118.38" r="1.06"/><circle class="cls-25" cx="225.57" cy="111.61" r="1.72"/><circle class="cls-25" cx="262.87" cy="85.34" r="1.72"/><circle class="cls-25" cx="307.33" cy="95.93" r="1.72"/><circle class="cls-25" cx="342.07" cy="100.59" r="1.72"/><circle class="cls-25" cx="336.56" cy="126.01" r="1.72"/><circle class="cls-25" cx="359.43" cy="159.9" r="1.72"/><circle class="cls-25" cx="335.29" cy="142.95" r="1.72"/><circle class="cls-25" cx="347.57" cy="180.66" r="1.72"/><circle class="cls-25" cx="349.27" cy="209.07" r="1.72"/><circle class="cls-25" cx="345.88" cy="234.46" r="1.72"/><circle class="cls-25" cx="304.79" cy="254.39" r="1.72"/><circle class="cls-25" cx="276.83" cy="225.98" r="1.72"/><circle class="cls-25" cx="241.93" cy="269.89" r="1.72"/><circle class="cls-25" cx="221.33" cy="226.83" r="1.72"/><circle class="cls-25" cx="217.94" cy="182.35" r="1.72"/><path class="cls-24" d="M1031.62,54.83c2.5-1.82,4.86-3.7,7.55-5.45a64.83,64.83,0,0,1,8.94-4.74A75.46,75.46,0,0,1,1058.17,41a98.35,98.35,0,0,1,11.7-2.42c2.33-.37,1.23-2.38-1.16-1.87-.65.14-1.32.24-2,.39-1.37.33-1.28,1.41.12,1.5.66,0,1.33,0,2,.06l.34-2a71.09,71.09,0,0,0-22.25,6.71,64.1,64.1,0,0,0-8.74,5.33,32.63,32.63,0,0,0-6.8,6.11c-.06.07.11.14.21.07Z"/><path class="cls-25" d="M1018.95,68.66c3.43-2,6.77-4.25,10.33-6.08a56.86,56.86,0,0,1,11.13-4.21,51.57,51.57,0,0,1,11.44-1.83A55.86,55.86,0,0,1,1064,57.62c2.34.41,2.66-3.59.16-3.78-.68-.05-1.34-.18-2-.2a1.46,1.46,0,0,0-.86,2.67c.56.37,1.18.66,1.76,1l1.62-3.39c-8-1.9-16.72-1-24.4,1.63a63.09,63.09,0,0,0-11.32,5.33,46,46,0,0,0-10.09,7.56c-.1.1,0,.29.15.21Z"/><path class="cls-24" d="M1026.22,73.66c3.25,1.47,6.5,2.77,9.76,4.47a68.93,68.93,0,0,1,9.67,6.28,77.72,77.72,0,0,1,9,8,99.23,99.23,0,0,1,8.45,10.37c1.56,2.13,3.25-.12,1.5-2.23-.47-.57-.91-1.19-1.4-1.74-1-1.19-2.18-.48-1.6,1,.27.69.62,1.36.92,2l2.42-.82a72.61,72.61,0,0,0-18.42-18.52,69.13,69.13,0,0,0-10.22-5.74,37.19,37.19,0,0,0-10.12-3.35c-.11,0-.1.19,0,.25Z"/><path class="cls-26" d="M992.81,73.23c-3.85,1.07-7.75,2-11.53,3.27a56.7,56.7,0,0,0-10.74,5.14,51.56,51.56,0,0,0-9.22,7,55.85,55.85,0,0,0-7.58,9.51c-1.32,2-4.43-.56-2.85-2.5.43-.52.8-1.09,1.24-1.6a1.47,1.47,0,0,1,2.53,1.22c-.12.67-.34,1.31-.48,2l-3.57-1.17c4.12-7.06,10.85-12.76,18-16.52a63.15,63.15,0,0,1,11.68-4.51A46,46,0,0,1,992.76,73c.14,0,.2.21.05.25Z"/><path class="cls-27" d="M1016.37,65.37c3.19-4.29,6.14-8.66,9.65-12.82A89,89,0,0,1,1038.09,41a196.18,196.18,0,0,1,20.62-13.78A112.93,112.93,0,0,1,1075.87,20c3.46-1.2,1-5.23-2.48-3.71-1,.41-1.94.74-2.88,1.18-2,.93-1.45,3.19.74,3.13,1,0,2.06-.18,3.1-.24q-.11-2.16-.22-4.33c-12.12,3.61-29.77,14.72-38.32,22.42a92.48,92.48,0,0,0-11.53,12.79A56.25,56.25,0,0,0,1016,65.27c-.06.16.23.27.35.1Z"/><path class="cls-28" d="M1018.35,53.93a46.09,46.09,0,0,1,2.91-5.52c1.08-2,2.14-4,3.32-6a98.32,98.32,0,0,1,7.27-10.52c2.55-3.22,5.26-6.32,8-9.39,2.9-3.26,6-6.34,8.87-9.63,1.64-1.88-1.72-4.41-3-2.33-.48.75-.76,1.56-1.18,2.33-.52,1,.71,2,1.62,1.6.63-.3,1.23-.66,1.83-1L1046,10.18a127.83,127.83,0,0,0-16.26,20.1,121.2,121.2,0,0,0-6.4,10.85c-1,1.93-1.91,3.9-2.77,5.9-1,2.24-1.38,4.64-2.26,6.89,0,0,0,0,0,0Z"/><path class="cls-29" d="M1004.68,68.09a45.88,45.88,0,0,0-6.24,0c-2.29,0-4.57,0-6.86.11a98.39,98.39,0,0,0-12.71,1.48c-4,.74-8.05,1.68-12,2.64-4.24,1-8.42,2.32-12.67,3.31-2.43.56-3.08-3.59-.63-3.79.89-.07,1.74.06,2.62.05A1.24,1.24,0,0,1,956.8,74c-.56.42-1.16.77-1.74,1.15l-2-3.24A127.86,127.86,0,0,1,978.44,67,120.66,120.66,0,0,1,991,66.5c2.17,0,4.35.14,6.51.32,2.43.2,4.75,1,7.14,1.24,0,0,0,0,0,0Z"/><path class="cls-30" d="M1014.29,64.54c0-2,.23-4.2.35-6.21.14-2.28.27-4.54.46-6.81.37-4.21.9-8.39,1.57-12.48s1.41-7.84,2.18-11.7c.82-4.11,1.79-8.13,2.59-12.25.45-2.36-1.82-3.44-2.07-1-.09.87-.07,1.73-.12,2.61-.07,1.09.8,1.61,1.18.87.27-.51.5-1.07.74-1.61l-1.69-2.33a208.86,208.86,0,0,0-4.22,24.73c-.46,4.13-.83,8.27-1,12.46-.11,2.16-.17,4.34-.2,6.51,0,2.44.26,4.82.27,7.23,0,0,0,0,0,0Z"/><path class="cls-28" d="M1016.71,75a45.47,45.47,0,0,1,2.75,5.61c1,2.06,2,4.11,2.9,6.22a96.64,96.64,0,0,1,4.2,12.09c1.09,4,2,8,2.86,12,.92,4.27,1.56,8.62,2.52,12.87.55,2.44,4.63,1.17,3.73-1.13-.32-.83-.81-1.53-1.19-2.33-.47-1-2.07-.6-2.27.4-.14.69-.2,1.39-.29,2.08l3.83.35a126.25,126.25,0,0,0-6.63-25,118.58,118.58,0,0,0-5-11.57c-1-1.94-2-3.84-3.14-5.71-1.25-2.1-3-3.84-4.25-5.87,0,0,0,0,0,0Z"/><path class="cls-31" d="M1017.62,73c10.11,4.84,20.77,17.08,31,29,.85,1,1.8,1.44,2.35,1.14s.74-1.14.45-2.57a9.19,9.19,0,0,0-1.93-3.79c-10.59-12.39-22.36-21.41-32.09-24.93-.44-.16-.21.88.25,1.11Z"/><path class="cls-32" d="M1022,69.53a142.54,142.54,0,0,1,14.76.68c5.27.37,25.49,4.74,28.69,5.81,2.59.87,3.8-2.43,1.26-3.36-3.18-1.17-16.43-4.32-22.15-4.59-6.57-.31-13.52.25-21.63.87-1.2.09-2,.62-.94.59Z"/><path class="cls-32" d="M1008.37,71.93c-10.09,2.52-18.15,10-24.27,18.23-5.37,7.22-7.23,17-8.55,25.93-.37,2.53-.65,5.08-.88,7.64a1.89,1.89,0,0,1-1.34,1.63c-1.55.24-2.13-2.68-2.06-3.42.86-9.3,2.34-18.66,6.8-26.85a51.26,51.26,0,0,1,20.66-20.5,33.64,33.64,0,0,1,9.5-3.11c.28-.05.42.37.13.44Z"/><path class="cls-24" d="M995.63,51.57a27.16,27.16,0,0,0-3.06-2.11c-1.13-.77-2.24-1.54-3.4-2.26a58.58,58.58,0,0,0-6.73-3.55c-2.23-1-4.52-1.89-6.8-2.76s-4.91-1.69-7.33-2.64c-1.38-.54-.3-2.8,1-2.07.46.26.83.61,1.27.91a.74.74,0,0,1-.42,1.29c-.41,0-.83,0-1.24,0l.11-2.26a76,76,0,0,1,14.11,6.14,71.37,71.37,0,0,1,6.36,4c1.06.74,2.08,1.53,3.09,2.35s2,2.07,3.09,3c0,0,0,0,0,0Z"/><path class="cls-24" d="M997.95,31.43c-1.2-2.09-3.28-4-4.94-5.72a25.37,25.37,0,0,0-6.71-5c-2-1.06-.84-4.44,1.28-3.39a22,22,0,0,1,6.72,5.53c2.21,2.55,3.17,5.18,4.34,8.25a.37.37,0,0,1-.68.32Z"/><path class="cls-24" d="M983,82.16c-3,.56-6,2.81-8.22,5.57a15.57,15.57,0,0,0-2.08,3.54c-.53,1.19-.63,2.66-1.49,3.71s-2.39,1.4-2.88.23c-1.14-2.69,3.23-7.26,5.28-9.22a14.65,14.65,0,0,1,9.51-4.39c.33,0,.22.51-.11.57Z"/><path class="cls-33" d="M1007.21,65.7a78.22,78.22,0,0,0-21.06-6.91,48.15,48.15,0,0,0-11-.64,44.34,44.34,0,0,0-5.47.71c-2.07.38-4.08,1.09-6.12,1.53-2.73.58-2.58-3.67,0-4.42a37.13,37.13,0,0,1,6.12-.88,56.43,56.43,0,0,1,5.86-.24,52.53,52.53,0,0,1,11.28,1.2c7.64,1.63,14.19,5.23,20.58,9.38.13.08,0,.34-.17.27Z"/><path class="cls-24" d="M1013.07,76.56c-1.65,9.47-3.11,19.91-1.2,30.62a100.75,100.75,0,0,0,4.05,15.59q1.37,3.9,3.06,7.7c1.29,2.89,3,5.67,4.2,8.56l-3.34,1a13,13,0,0,1-.86-3.63c0-1.94,2-1.85,2.79.11a7,7,0,0,0,1.05,1.92c2.16,2.7-.77,5.21-2.73,2.2a54.6,54.6,0,0,1-4.11-8.61c-1.16-2.77-2.23-5.58-3.11-8.42a68.76,68.76,0,0,1-3.15-16.44c-.61-11.09.36-21.24,3.27-30.7,0,0,.08,0,.08,0Z"/><path class="cls-27" d="M1010.7,75.22c-4.55,7.71-9.25,16.34-11.08,26.27a92.25,92.25,0,0,0-1.53,14.88q-.08,3.83.17,7.69c.19,2.93.77,5.89.9,8.8l-3.28-.16a12,12,0,0,1,.42-3.43c.6-1.7,2.41-1,2.42,1a6.35,6.35,0,0,0,.3,2c1,3-2.38,4.29-3.12,1a50.29,50.29,0,0,1-.8-8.82c-.11-2.79-.13-5.57,0-8.33a63.29,63.29,0,0,1,2.61-15.33,80.84,80.84,0,0,1,12.92-25.68s.08,0,.05.07Z"/><path class="cls-25" d="M1011.43,62.54a101.51,101.51,0,0,0-14.86-21.06,63.36,63.36,0,0,0-9.64-8.57,57.44,57.44,0,0,0-5.43-3.41c-2.12-1.19-4.4-2.07-6.53-3.2-2.86-1.51-.05-4.91,2.78-3.64a48.14,48.14,0,0,1,6.13,3.73c1.93,1.25,3.71,2.67,5.49,4.08a69.14,69.14,0,0,1,9.53,9.22c5.94,6.92,9.65,14.66,12.87,22.75.07.17-.24.25-.33.1Z"/><polygon class="cls-34" points="958.52 62.92 955.4 63.15 957.88 65.06 955.22 63.41 956.1 66.41 954.92 63.51 953.87 66.46 954.61 63.42 952.03 65.19 954.42 63.17 951.29 63.08 954.41 62.85 951.94 60.94 954.6 62.59 953.72 59.59 954.89 62.48 955.95 59.54 955.2 62.57 957.78 60.81 955.39 62.83 958.52 62.92"/><polygon class="cls-34" points="1013.29 16.05 1010.17 16.28 1012.64 18.19 1009.99 16.54 1010.87 19.54 1009.68 16.64 1008.63 19.59 1009.38 16.55 1006.8 18.32 1009.19 16.3 1006.06 16.21 1009.18 15.98 1006.71 14.07 1009.36 15.72 1008.48 12.72 1009.66 15.61 1010.72 12.67 1009.97 15.7 1012.55 13.94 1010.16 15.96 1013.29 16.05"/><polygon class="cls-34" points="1067.87 32 1064.76 32.23 1067.23 34.14 1064.57 32.49 1065.45 35.5 1064.27 32.6 1063.22 35.54 1063.97 32.51 1061.39 34.27 1063.77 32.26 1060.65 32.16 1063.77 31.93 1061.29 30.02 1063.95 31.67 1063.07 28.67 1064.25 31.57 1065.3 28.62 1064.55 31.66 1067.13 29.89 1064.75 31.91 1067.87 32"/><polygon class="cls-34" points="1065.4 12.55 1062.29 12.77 1064.76 14.69 1062.1 13.04 1062.98 16.04 1061.8 13.14 1060.75 16.09 1061.5 13.05 1058.92 14.81 1061.31 12.79 1058.18 12.71 1061.3 12.48 1058.82 10.56 1061.48 12.21 1060.6 9.21 1061.78 12.11 1062.83 9.16 1062.09 12.2 1064.67 10.44 1062.28 12.45 1065.4 12.55"/><polygon class="cls-34" points="995.87 140.6 992.75 140.83 995.23 142.74 992.57 141.09 993.45 144.09 992.27 141.2 991.22 144.14 991.96 141.1 989.38 142.87 991.77 140.85 988.64 140.76 991.76 140.53 989.29 138.62 991.95 140.27 991.07 137.27 992.25 140.16 993.3 137.22 992.55 140.25 995.13 138.49 992.75 140.51 995.87 140.6"/><polygon class="cls-34" points="1066.43 110.37 1063.31 110.59 1065.79 112.5 1063.13 110.86 1064.01 113.86 1062.83 110.96 1061.78 113.91 1062.53 110.87 1059.94 112.63 1062.33 110.62 1059.2 110.52 1062.32 110.3 1059.85 108.39 1062.51 110.03 1061.62 107.03 1062.81 109.93 1063.86 106.98 1063.11 110.02 1065.69 108.26 1063.3 110.28 1066.43 110.37"/><circle class="cls-25" cx="976.26" cy="47.44" r="1.12"/><circle class="cls-25" cx="960.3" cy="52.76" r="1.12"/><circle class="cls-25" cx="966.46" cy="43.24" r="0.7"/><circle class="cls-25" cx="956.24" cy="44.36" r="1.05"/><circle class="cls-25" cx="968.7" cy="49.68" r="0.7"/><circle class="cls-25" cx="1006.35" cy="98.95" r="0.7"/><circle class="cls-25" cx="981.75" cy="115.37" r="0.7"/><circle class="cls-25" cx="971.78" cy="73.9" r="0.7"/><circle class="cls-25" cx="973.74" cy="64.94" r="0.7"/><circle class="cls-25" cx="1003.13" cy="26.03" r="0.7"/><circle class="cls-25" cx="984.55" cy="120.97" r="0.7"/><circle class="cls-25" cx="967.3" cy="100.35" r="0.7"/><circle class="cls-25" cx="961.7" cy="77.39" r="0.7"/><circle class="cls-25" cx="1001.59" cy="103.71" r="0.7"/><circle class="cls-25" cx="984.41" cy="126.57" r="0.7"/><circle class="cls-25" cx="1023.43" cy="121.08" r="0.7"/><circle class="cls-25" cx="1047.78" cy="106.51" r="0.7"/><circle class="cls-25" cx="1053.8" cy="81.45" r="0.7"/><circle class="cls-25" cx="1053.24" cy="48.7" r="0.7"/><circle class="cls-25" cx="1055.62" cy="61.72" r="0.7"/><circle class="cls-25" cx="1047.78" cy="59.76" r="0.7"/><circle class="cls-25" cx="1039.94" cy="52.48" r="0.7"/><circle class="cls-25" cx="1050.3" cy="35.96" r="0.7"/><circle class="cls-25" cx="1044.98" cy="28.41" r="0.7"/><circle class="cls-25" cx="1045.54" cy="20.01" r="0.7"/><circle class="cls-25" cx="1031.54" cy="16.37" r="0.7"/><circle class="cls-25" cx="1029.02" cy="25.33" r="0.7"/><circle class="cls-25" cx="1000.75" cy="16.65" r="0.7"/><circle class="cls-25" cx="981.3" cy="35.4" r="0.7"/><circle class="cls-25" cx="971.5" cy="30.93" r="1.14"/><circle class="cls-25" cx="996.15" cy="13.57" r="1.14"/><circle class="cls-25" cx="1025.53" cy="20.57" r="1.14"/><circle class="cls-25" cx="1048.48" cy="23.65" r="1.14"/><circle class="cls-25" cx="1044.84" cy="40.44" r="1.14"/><circle class="cls-25" cx="1059.96" cy="62.84" r="1.14"/><circle class="cls-25" cx="1044" cy="51.64" r="1.14"/><circle class="cls-25" cx="1052.12" cy="76.56" r="1.14"/><circle class="cls-25" cx="1053.24" cy="95.33" r="1.14"/><circle class="cls-25" cx="1051" cy="112.11" r="1.14"/><circle class="cls-25" cx="1023.85" cy="125.28" r="1.14"/><circle class="cls-25" cx="1005.37" cy="106.51" r="1.14"/><circle class="cls-25" cx="982.31" cy="135.52" r="1.14"/><circle class="cls-25" cx="968.7" cy="107.07" r="1.14"/><circle class="cls-25" cx="966.46" cy="77.67" r="1.14"/><path class="cls-8" d="M140.63,125.54c2.39-5.48,7-10.71,10.67-15.46A62.77,62.77,0,0,1,166.53,96c4.72-3.16.88-11.18-4.06-8-6.18,3.94-10.94,9.49-15.09,15.47-4.77,6.88-6.43,13.64-8.5,21.54a.93.93,0,0,0,1.76.6Z"/><path class="cls-35" d="M89.8,303.69c-16.3-49.32-7.15-103.32,10.12-151.1,15.15-41.91,49.86-75.82,82.7-105.27,9.3-8.34,18.93-16.29,28.68-24.1,2.82-2.25,4.37-7,3.08-10-3.07-7.18-16.46-1.82-19.26.43C159.66,42.06,125.59,73.3,104.07,114c-22.52,42.55-33,94-28.79,141.93,1.49,17,6.21,32.61,12.37,48.41.51,1.32,2.61.78,2.15-.61Z"/><path class="cls-26" d="M65.46,125.9c-.13-4.41-1.46-9.1-2.21-13.47-.85-4.93-1.64-9.85-2.72-14.74a214.72,214.72,0,0,0-7.8-26.84c-3.05-8.44-6.53-16.75-10.05-25C38.94,37.07,34.62,28.54,31,19.74c-2.1-5,6.62-8,7.93-2.72.47,1.88.5,3.76.84,5.66.42,2.36-2.88,3.69-4.47,2.18-1.1-1-2.08-2.22-3.11-3.34L38.41,16A279.35,279.35,0,0,1,58.18,69a264.49,264.49,0,0,1,5.75,26.93c.73,4.69,1.26,9.42,1.66,14.15.45,5.31-.36,10.58-.07,15.84a0,0,0,0,1-.06,0Z"/><path class="cls-17" d="M76.8,198.07c-.24-7.42,1.51-15.42,2.31-22.81.9-8.36,1.73-16.69,3-25a360.53,360.53,0,0,1,10.28-45.83c4.25-14.47,9.21-28.77,14.26-43,5.36-15.1,11.73-29.86,17-45,3-8.67-11.93-12.64-13.59-3.74-.6,3.21-.45,6.36-.82,9.58-.46,4,5.22,5.9,7.73,3.2,1.74-1.87,3.26-3.94,4.86-5.93L110.75,11a469.62,469.62,0,0,0-27.66,90.82,444.37,444.37,0,0,0-6.85,45.76c-.74,7.95-1.14,15.92-1.32,23.9-.2,9,1.7,17.71,1.77,26.55a.05.05,0,0,0,.1,0Z"/><path class="cls-27" d="M66.88,241.32c-.67-9.13-.92-18.18-2.16-27.43A152.43,152.43,0,0,0,57.93,186c-3-9-12.32-30.18-17.16-38.9-5.16-9.31-11.45-17.74-18.19-26.24-3.9-4.92,3.32-8.51,7-3.09,1,1.47,2.13,2.86,3.08,4.35,2,3.18-.82,5.95-3.95,3.84-1.47-1-2.82-2.15-4.27-3.19l4.3-6.05c14.22,16.38,29.52,48.69,34.8,67.69a158.61,158.61,0,0,1,4.91,29.12c.83,9.67.88,19.19-1,28-.06.29-.57.18-.6-.17Z"/><polygon class="cls-18" points="150.49 30.86 141.19 31.55 148.57 37.24 140.65 32.33 143.27 41.27 139.75 32.64 136.62 41.42 138.84 32.37 131.15 37.63 138.26 31.61 128.95 31.34 138.24 30.66 130.87 24.96 138.79 29.87 136.16 20.93 139.69 29.56 142.82 20.78 140.59 29.83 148.29 24.58 141.17 30.59 150.49 30.86"/><polygon class="cls-27" points="21.54 124.14 12.25 124.82 19.62 130.52 11.7 125.6 14.32 134.55 10.8 125.92 7.67 134.69 9.9 125.64 2.2 130.9 9.32 124.88 0 124.61 9.3 123.93 1.92 118.23 9.84 123.15 7.22 114.2 10.74 122.84 13.87 114.06 11.64 123.11 19.34 117.85 12.22 123.87 21.54 124.14"/><circle class="cls-25" cx="60.25" cy="35.37" r="1.56"/><circle class="cls-9" cx="185.63" cy="71.43" r="2.53"/><circle class="cls-34" cx="125.48" cy="47.29" r="1.56"/><circle class="cls-9" cx="171.24" cy="69.37" r="1.56"/><circle class="cls-25" cx="64.36" cy="20.03" r="2.53"/><circle class="cls-34" cx="34.49" cy="72.31" r="1.56" transform="translate(-41.59 47.21) rotate(-46.24)"/><circle class="cls-34" cx="18.8" cy="68.65" r="2.53" transform="translate(-43.77 34.71) rotate(-46.21)"/><path class="cls-8" d="M1179.55,278.76c27.2-34.66,35.44-80.38,35.42-123.48,0-37.8-18-74.86-35.7-107.81-5-9.33-10.42-18.45-15.95-27.48-1.6-2.61-1.48-6.83.43-8.88,4.51-4.84,13.66,3.29,15.25,5.89,20.11,32.89,38.31,67.62,43.78,106.27,5.73,40.43-.7,84.48-17.88,121.54-6.07,13.1-14.35,24.24-23.81,35.07-.79.9-2.31-.13-1.54-1.11Z"/><path class="cls-16" d="M1178.53,299.64c6.82-3.61,13.13-9.33,19.39-13.87,7.07-5.13,14.17-10.18,21-15.64a374.37,374.37,0,0,0,36-33c10.86-11.31,21.2-23.17,31.41-35.06,10.85-12.63,20.88-26,31.83-38.53,6.27-7.18,17.57,4.23,10.4,10.32-2.58,2.2-5.51,3.69-8.22,5.69-3.37,2.48-8-1.66-6.88-5.32.79-2.54,1.87-5,2.83-7.45l13.42,5.57a488,488,0,0,1-67.66,71.87,461.77,461.77,0,0,1-37.75,29.82c-6.79,4.77-13.78,9.25-20.88,13.54-8,4.81-16.85,7.61-24.88,12.11-.06,0-.11-.06-.05-.09Z"/><path class="cls-14" d="M1204.72,271.55c5.33-8.28,11-16.22,15.88-25a163.91,163.91,0,0,0,12.19-28.35c3.25-9.73,8.92-33.91,10.4-44.54,1.59-11.34,1.63-22.65,1.33-34.31-.17-6.75,8.36-5.17,8,1.87-.09,1.91,0,3.83-.17,5.73-.32,4-4.55,4.58-5.88.75-.62-1.8-1-3.68-1.6-5.5l7.61-2.42c1.64,23.27-6.09,60.94-13.84,80.69a170.55,170.55,0,0,1-14.6,28.21c-5.54,8.85-11.65,17.07-18.92,23.4-.24.21-.61-.21-.4-.54Z"/><path class="cls-26" d="M1258.42,215.48c2.42-2.94,4.21-6.75,6.2-10,2.25-3.69,4.52-7.33,6.6-11.12a185.29,185.29,0,0,0,10.15-21.87c2.8-7.22,5.25-14.6,7.64-22,2.54-7.82,4.57-15.83,7.18-23.62,1.49-4.46,8.81-1.41,6.7,2.73-.76,1.49-1.81,2.73-2.67,4.16-1.06,1.77-4,.77-4.15-1.12-.12-1.31-.1-2.62-.13-3.93h7.18A240.93,240.93,0,0,1,1286,174.35a227.59,227.59,0,0,1-11.53,20.77c-2.19,3.47-4.52,6.84-6.94,10.14-2.72,3.71-6.24,6.67-9,10.25a0,0,0,1,1,0,0Z"/><path class="cls-10" d="M1228.14,284.23c6.38-7.9,16.44-11.69,26.4-12.11a33,33,0,0,1,11.45,1.83c3.56,1.15,7,4.25,10.84,4,4.34-.24,7.18-4,5.4-8.22-4.12-9.68-21.75-7-29.63-5.25a39.51,39.51,0,0,0-25.93,18.76.88.88,0,0,0,1.47,1Z"/><circle class="cls-11" cx="1170.06" cy="61.46" r="4.28" transform="translate(-1.08 26.11) rotate(-1.28)"/><circle class="cls-11" cx="1279.25" cy="251.14" r="4.28" transform="translate(-5.25 28.39) rotate(-1.27)"/><circle class="cls-11" cx="1274.4" cy="140.27" r="2.4" transform="translate(-2.74 27.59) rotate(-1.24)"/><circle class="cls-11" cx="1304" cy="158.65" r="2.41" transform="translate(-3.12 28.22) rotate(-1.24)"/><circle class="cls-11" cx="1230.81" cy="128.22" r="1.35" transform="translate(-2.56 27.55) rotate(-1.28)"/><circle class="cls-11" cx="1230.81" cy="96.16" r="1.35" transform="translate(-1.84 27.54) rotate(-1.28)"/><circle class="cls-11" cx="1324.07" cy="147.23" r="1.35" transform="translate(-2.91 29.06) rotate(-1.26)"/><circle class="cls-11" cx="1335.29" cy="158.45" r="1.35" transform="matrix(1, -0.02, 0.02, 1, -3.15, 29.26)"/><circle class="cls-11" cx="1263.15" cy="253.03" r="1.35" transform="translate(-5.46 28.95) rotate(-1.31)"/><circle class="cls-11" cx="1153.87" cy="41.66" r="1.35" transform="translate(-0.64 25.24) rotate(-1.25)"/><polygon class="cls-2" points="1157.23 62.74 1147.57 63.45 1155.23 69.37 1147 64.26 1149.73 73.56 1146.07 64.59 1142.81 73.71 1145.13 64.31 1137.12 69.77 1144.52 63.52 1134.84 63.24 1144.5 62.52 1136.83 56.6 1145.07 61.71 1142.34 52.41 1146 61.39 1149.26 52.26 1146.94 61.67 1154.95 56.2 1147.55 62.46 1157.23 62.74"/><polygon class="cls-34" points="1284.63 106.88 1274.97 107.58 1282.64 113.51 1274.4 108.4 1277.13 117.7 1273.47 108.72 1270.21 117.85 1272.53 108.44 1264.53 113.91 1271.92 107.65 1262.24 107.37 1271.9 106.66 1264.23 100.74 1272.47 105.85 1269.74 96.55 1273.4 105.52 1276.66 96.4 1274.35 105.81 1282.35 100.34 1274.95 106.59 1284.63 106.88"/></g></g></svg>