<svg xmlns="http://www.w3.org/2000/svg" viewBox="0 0 119 345.5"><defs><style>.cls-1{fill:none;stroke:#fff;stroke-miterlimit:10;stroke-width:12px;}.cls-2{fill:#fff;}</style></defs><title>catalyst</title><g id="Layer_2" data-name="Layer 2"><g id="Layer_1-2" data-name="Layer 1"><path class="cls-1" d="M6,86.5H113a0,0,0,0,1,0,0V286a53.5,53.5,0,0,1-53.5,53.5h0A53.5,53.5,0,0,1,6,286V86.5a0,0,0,0,1,0,0Z"/><path class="cls-2" d="M59.5,325h0a38,38,0,0,1-38-38V191s13-27,38,0,38,0,38,0v96A38,38,0,0,1,59.5,325Z"/><circle class="cls-2" cx="71.5" cy="179" r="12"/><circle class="cls-2" cx="98.5" cy="16" r="12"/><circle class="cls-2" cx="83.5" cy="110" r="12"/><circle class="cls-2" cx="86.5" cy="65" r="12"/><circle class="cls-2" cx="92" cy="152.5" r="5.5"/><circle class="cls-2" cx="51" cy="139.5" r="5.5"/><circle class="cls-2" cx="74" cy="40.5" r="5.5"/><circle class="cls-2" cx="29.5" cy="158" r="8"/><circle class="cls-2" cx="13.5" cy="20" r="8"/><circle class="cls-2" cx="71.5" cy="150" r="8"/><circle class="cls-2" cx="37.5" cy="114" r="8"/><circle class="cls-2" cx="45.5" cy="8" r="8"/><circle class="cls-2" cx="40" cy="46.5" r="18.5"/></g></g></svg>