<svg xmlns="http://www.w3.org/2000/svg" viewBox="0 0 378 334.19"><defs><style>.cls-1{fill:#fff;}.cls-2{fill:none;stroke:#fff;stroke-linecap:round;stroke-miterlimit:10;stroke-width:12px;}</style></defs><title>ensemble</title><g id="Layer_2" data-name="Layer 2"><g id="Layer_1-2" data-name="Layer 1"><circle class="cls-1" cx="190" cy="167.6" r="23"/><path class="cls-2" d="M72.32,211.39C31.81,200.85,6,184.92,6,167.1c0-31.76,81.93-57.5,183-57.5s183,25.74,183,57.5c0,17.86-25.91,33.82-66.57,44.36"/><path class="cls-2" d="M170.82,288.45c-30.1,31.06-57.57,46.22-73.32,37.13C70,309.7,88.67,225.87,139.2,138.35S253-7.26,280.5,8.61c15.2,8.78,16.3,38.32,5.7,77.77"/><path class="cls-2" d="M238.8,138.35C289.33,225.87,308,309.7,280.5,325.58s-90.76-42.21-141.3-129.73S70,24.49,97.5,8.61c15.08-8.71,40.91,4.82,69.5,33.25"/></g></g></svg>