<svg xmlns="http://www.w3.org/2000/svg" viewBox="0 0 200 820"><defs><style>.cls-1{fill:none;stroke:#fff;stroke-linecap:round;stroke-miterlimit:10;stroke-width:20px;}.cls-2{fill:#fff;}</style></defs><title>naturalist</title><g id="Layer_2" data-name="Layer 2"><g id="Layer_1-2" data-name="Layer 1"><path class="cls-1" d="M84.74,230.21c-26,38.25-50.89,78.08-63.48,122.76C4.73,411.62,19.07,467.32,45.5,520.66,61.25,552.45,79.87,582.8,100,612c91,132,90,198,90,198"/><path class="cls-1" d="M190,10s.87,57.36-72.74,172.08"/><path class="cls-1" d="M84.74,634.82C9.12,751.61,10,810,10,810"/><path class="cls-1" d="M10,10S9,76,100,208c25.46,36.93,48.7,75.77,66.41,117.05,19.52,45.51,26.29,99.53,8.94,147.38-14.52,40-35,77.82-58.09,113.68"/><path class="cls-2" d="M101,566.62c1.72-2.73,3.39-5.43,5-8.12H96Q98.48,562.54,101,566.62Z"/><path class="cls-2" d="M84.74,684.5h32.52q-5.5-9.64-11.86-20H96.6Q90.24,674.86,84.74,684.5Z"/><path class="cls-2" d="M57.85,737.5h86.3q-4.12-9.4-9.32-20H67.17Q62,728.1,57.85,737.5Z"/><path class="cls-2" d="M44.12,46.5H157.88c2.53-8,4.28-14.63,5.48-20H38.64C39.84,31.87,41.59,38.55,44.12,46.5Z"/><path class="cls-2" d="M94.77,152.5h12.47q6.3-10.37,11.73-20H83Q88.47,142.13,94.77,152.5Z"/><path class="cls-2" d="M65.7,99.5h70.6q5.15-10.62,9.15-20H56.55Q60.58,88.88,65.7,99.5Z"/><path class="cls-2" d="M45.09,770.5c-2.58,7.81-4.43,14.49-5.75,20H162.67c-1.33-5.51-3.18-12.19-5.75-20Z"/><path class="cls-2" d="M156.4,452.5H46.86q2.59,9.81,6.2,20h96.55c1.11-2.87,2.2-5.73,3.24-8.59Q154.87,458.34,156.4,452.5Z"/><path class="cls-2" d="M76.35,291.5c-3.8,6.6-7.43,13.26-10.83,20h68.13q-4.86-9.89-10.34-20Z"/><path class="cls-2" d="M100.64,252.84q-1.89,2.83-3.76,5.66h7.29Q102.43,255.68,100.64,252.84Z"/><path class="cls-2" d="M40.91,419.5H161.14c.07-2,.11-4,.11-6.09q0-6.89-.56-13.91H40.26c0,1.48-.07,3-.07,4.44Q40.19,411.62,40.91,419.5Z"/><path class="cls-2" d="M46.32,359.75c-.45,1.58-.86,3.17-1.25,4.75H154.65c-1.78-6.71-3.9-13.39-6.37-20H51.22C49.41,349.54,47.77,354.62,46.32,359.75Z"/><path class="cls-2" d="M68.9,509.56q3.93,7.93,8.22,15.94h47.95q5.42-10.13,10.18-20H66.92Q67.89,507.52,68.9,509.56Z"/></g></g></svg>