<svg xmlns="http://www.w3.org/2000/svg" viewBox="0 0 792 790"><defs><style>.cls-1{fill:#fff;}</style></defs><title>samasya</title><g id="Layer_2" data-name="Layer 2"><g id="Layer_1-2" data-name="Layer 1"><polygon class="cls-1" points="47.25 741 108 741 108 790 47.25 790 0 790 0 0 47.25 0 108 0 108 49 47.25 49 47.25 741"/><path class="cls-1" d="M547.47,502.29h-.66l-37,19.52-5.57-21.43,46.51-24.31h24.57V684H547.47Z"/><path class="cls-1" d="M612,212.55c0,70.7-26.86,109.73-74,109.73-41.6,0-69.77-38.07-70.43-106.85,0-69.74,30.79-108.13,74-108.13C586.45,107.3,612,146.33,612,212.55Zm-115.63,3.2c0,54.07,17,84.78,43.24,84.78,29.48,0,43.57-33.59,43.57-86.7,0-51.19-13.43-84.78-43.24-84.78C514.72,129.05,496.37,159.13,496.37,215.75Z"/><path class="cls-1" d="M259.92,133.29h-.65l-36.76,19.49L217,131.38l46.19-24.28h24.4V314.73H259.92Z"/><path class="cls-1" d="M324,574.43C324,645,297.33,684,250.48,684c-41.31,0-69.29-38-69.94-106.69,0-69.64,30.58-108,73.52-108C298.63,469.34,324,508.31,324,574.43Zm-114.83,3.19c0,54,16.92,84.65,42.94,84.65,29.28,0,43.26-33.54,43.26-86.57,0-51.11-13.34-84.65-42.94-84.65C227.39,491.06,209.17,521.09,209.17,577.63Z"/><polygon class="cls-1" points="748.69 741 693 741 693 790 748.69 790 792 790 792 0 748.69 0 693 0 693 49 748.69 49 748.69 741"/></g></g></svg>